<svg enable-background="new 0 0 300 240" height="240" viewBox="0 0 300 240" width="300" xmlns="http://www.w3.org/2000/svg" xmlns:xlink="http://www.w3.org/1999/xlink"><linearGradient id="a"><stop offset="0" stop-color="#0096d6"/><stop offset=".05534863" stop-color="#0092d2"/><stop offset=".3929" stop-color="#007bbc"/><stop offset=".7143" stop-color="#006eaf"/><stop offset="1" stop-color="#0069aa"/></linearGradient><linearGradient id="b" gradientUnits="userSpaceOnUse" x1="66.38" x2="166.1002" xlink:href="#a" y1="127.3638" y2="127.3638"/><linearGradient id="c"><stop offset=".3548" stop-color="#f7aa46"/><stop offset="1" stop-color="#f46b45"/></linearGradient><linearGradient id="d" gradientUnits="userSpaceOnUse" x1="57.529" x2="157.2493" xlink:href="#c" y1="158.3008" y2="158.3008"/><linearGradient id="e"><stop offset="0" stop-color="#6db33f"/><stop offset=".2727" stop-color="#72b541"/><stop offset=".5793" stop-color="#7fb948"/><stop offset=".9014" stop-color="#96c153"/><stop offset="1" stop-color="#9ec457"/></linearGradient><linearGradient id="f" gradientTransform="matrix(-1 0 0 1 636.0717 0)" gradientUnits="userSpaceOnUse" x1="504.1484" x2="515.246" xlink:href="#e" y1="70.0289" y2="72.6639"/><linearGradient id="g" gradientTransform="matrix(-1 0 0 1 636.0717 0)" gradientUnits="userSpaceOnUse" x1="505.0151" x2="514.0858" xlink:href="#e" y1="75.9517" y2="77.776"/><linearGradient id="h"><stop offset="0" stop-color="#312b30"/><stop offset="1" stop-color="#191519"/></linearGradient><linearGradient id="i" gradientTransform="matrix(.9724 .2333 -.2333 .9724 32.1468 -31.5693)" gradientUnits="userSpaceOnUse" x1="114.9814" x2="249.6493" xlink:href="#h" y1="149.7143" y2="149.7143"/><linearGradient id="j" gradientTransform="matrix(.9724 .2333 -.2333 .9724 32.1468 -31.5693)" gradientUnits="userSpaceOnUse" x1="49.3937" x2="285.5456" xlink:href="#h" y1="103.127" y2="103.127"/><radialGradient id="k" cx="116.1051" cy="143.5422" gradientTransform="matrix(.9724 .2333 -.2333 .9724 32.1468 -31.5693)" gradientUnits="userSpaceOnUse" r="48.2413"><stop offset=".5744" stop-color="#161412"/><stop offset=".7977" stop-color="#161412"/><stop offset="1" stop-color="#161412"/></radialGradient><linearGradient id="l" gradientUnits="userSpaceOnUse" x1="173.0359" x2="293.8008" y1="133.2928" y2="133.2928"><stop offset="0" stop-color="#3d3d3d"/><stop offset="1" stop-color="#191519"/></linearGradient><linearGradient id="m" gradientTransform="matrix(-.9724 .2333 .2333 .9724 -112.3202 -31.5693)" gradientUnits="userSpaceOnUse" x1="-343.4169" x2="-247.235" xlink:href="#c" y1="251.6355" y2="251.6355"/><linearGradient id="n" gradientTransform="matrix(.756 .6545 -.6545 .756 -500.8975 -678.7)" gradientUnits="userSpaceOnUse" x1="964.6046" x2="975.5686" xlink:href="#e" y1="163.3508" y2="120.6291"/><linearGradient id="o" gradientTransform="matrix(.756 .6545 -.6545 .756 -500.8975 -678.7)" gradientUnits="userSpaceOnUse" x1="954.0488" x2="965.4407" xlink:href="#e" y1="152.0916" y2="171.2861"/><linearGradient id="p" gradientTransform="matrix(-1 0 0 1 1420.1083 0)" gradientUnits="userSpaceOnUse" x1="1216.6143" x2="1257.5739" xlink:href="#e" y1="164.5" y2="208.6231"/><linearGradient id="q"><stop offset=".053763" stop-color="#e76f32"/><stop offset=".4012" stop-color="#ef8a2f"/><stop offset=".7637" stop-color="#f69f2d"/><stop offset="1" stop-color="#f8a72c"/></linearGradient><linearGradient id="r" gradientTransform="matrix(-.6303 -.7559 -.552 .5969 1913.1038 559.4867)" gradientUnits="userSpaceOnUse" x1="1571.8564" x2="1578.171" xlink:href="#q" y1="1398.1537" y2="1398.1537"/><linearGradient id="s" gradientTransform="matrix(-.6303 -.7559 -.552 .5969 1913.1038 559.4867)" gradientUnits="userSpaceOnUse" x1="1566.5541" x2="1572.8687" xlink:href="#q" y1="1392.4175" y2="1392.4175"/><linearGradient id="t"><stop offset="0" stop-color="#326092"/><stop offset=".3244" stop-color="#23507f"/><stop offset=".6817" stop-color="#184572"/><stop offset="1" stop-color="#14416d"/></linearGradient><linearGradient id="u" gradientUnits="userSpaceOnUse" x1="149.6809" x2="171.0763" xlink:href="#t" y1="198.4835" y2="173.1148"/><linearGradient id="v"><stop offset="0" stop-color="#082235"/><stop offset="1" stop-color="#0e3150"/></linearGradient><linearGradient id="w" gradientTransform="matrix(.9752 -.2212 .2212 .9752 -170.0186 97.1993)" gradientUnits="userSpaceOnUse" x1="323.1961" x2="312.4902" xlink:href="#v" y1="139.6106" y2="148.6609"/><linearGradient id="x" gradientUnits="userSpaceOnUse" x1="181.5497" x2="161.3186" xlink:href="#t" y1="177.3938" y2="189.2464"/><linearGradient id="y"><stop offset=".3548" stop-color="#312b30"/><stop offset="1" stop-color="#191519"/></linearGradient><linearGradient id="z" gradientTransform="matrix(-.9994 .0328 .0328 .9994 1922.967 -109.5924)" gradientUnits="userSpaceOnUse" x1="1739.1385" x2="1760.1368" xlink:href="#y" y1="223.7185" y2="223.7185"/><linearGradient id="A" gradientTransform="matrix(-.9994 .0328 .0328 .9994 1922.967 -109.5924)" gradientUnits="userSpaceOnUse" x1="1739.1381" x2="1760.1376" xlink:href="#y" y1="223.6684" y2="223.6684"/><linearGradient id="B" gradientTransform="matrix(.9752 -.2212 .2212 .9752 -170.0186 97.1993)" gradientUnits="userSpaceOnUse" x1="332.19" x2="317.6213" xlink:href="#v" y1="138.7133" y2="150.0813"/><linearGradient id="C" gradientTransform="matrix(-.9994 .0328 .0328 .9994 1922.967 -109.5924)" gradientUnits="userSpaceOnUse" x1="1739.1364" x2="1760.1382" xlink:href="#y" y1="226.3082" y2="226.3082"/><linearGradient id="D" gradientTransform="matrix(.9752 -.2212 .2212 .9752 -170.0186 97.1993)" gradientUnits="userSpaceOnUse" x1="292.3907" x2="364.5435" xlink:href="#v" y1="144.668" y2="144.668"/><linearGradient id="E" gradientUnits="userSpaceOnUse" x1="109.0463" x2="101.4452" xlink:href="#h" y1="166.9648" y2="162.1001"/><linearGradient id="F" gradientUnits="userSpaceOnUse" x1="73.8728" x2="114.8323" y1="164.5001" y2="208.6231"><stop offset="0" stop-color="#0096d6"/><stop offset=".2474" stop-color="#1480bb"/><stop offset=".5162" stop-color="#256ea4"/><stop offset=".7723" stop-color="#2f6497"/><stop offset="1" stop-color="#326092"/></linearGradient><linearGradient id="G" gradientUnits="userSpaceOnUse" x1="123.1835" x2="105.5489" xlink:href="#c" y1="199.3788" y2="174.9031"/><linearGradient id="H" gradientUnits="userSpaceOnUse" x1="120.5692" x2="96.3976" xlink:href="#c" y1="197.8588" y2="171.5589"/><linearGradient id="I" gradientTransform="matrix(-.9215 -.3884 -.3884 .9215 945.5586 42.5172)" gradientUnits="userSpaceOnUse" x1="734.8148" x2="740.4313" xlink:href="#h" y1="432.5003" y2="453.4915"/><linearGradient id="J" gradientTransform="matrix(-.9284 -.3715 -.3715 .9284 942.1426 38.0326)" gradientUnits="userSpaceOnUse" x1="733.0955" x2="751.5476" xlink:href="#h" y1="436.2298" y2="425.2534"/><linearGradient id="K" gradientUnits="userSpaceOnUse" x1="248.4615" x2="273.0519" xlink:href="#a" y1="92.5285" y2="92.5285"/><linearGradient id="L" gradientTransform="matrix(.9912 -.1321 .1321 .9912 281.6258 1076.2036)" gradientUnits="userSpaceOnUse" x1="114.4841" x2="122.5109" xlink:href="#h" y1="-933.3188" y2="-933.3188"/><linearGradient id="M" gradientTransform="matrix(.9964 -.085 .085 .9964 453.9333 845.6927)" gradientUnits="userSpaceOnUse" x1="-126.3791" x2="-118.3527" xlink:href="#h" y1="-722.1782" y2="-722.1782"/><linearGradient id="N" gradientTransform="matrix(-.9628 -.2704 .2704 -.9628 126.8174 1297.1896)" gradientUnits="userSpaceOnUse" x1="194.436" x2="201.2513" xlink:href="#c" y1="1171.5021" y2="1189.3732"/><linearGradient id="O" gradientUnits="userSpaceOnUse" x1="235.6613" x2="254.8522" xlink:href="#a" y1="93.5426" y2="93.5426"/><linearGradient id="P" gradientUnits="userSpaceOnUse" x1="240.0057" x2="263.8683" xlink:href="#a" y1="96.6364" y2="96.6364"/><linearGradient id="Q"><stop offset="0" stop-color="#f8df44"/><stop offset=".2456" stop-color="#f8d744"/><stop offset=".6225" stop-color="#f7c245"/><stop offset=".9462" stop-color="#f7aa46"/></linearGradient><linearGradient id="R" gradientTransform="matrix(-.3273 -.9449 -.9449 .3273 -844.9094 570.8296)" gradientUnits="userSpaceOnUse" x1="155.3666" x2="175" xlink:href="#Q" y1="-1041.3219" y2="-1041.3219"/><linearGradient id="S"><stop offset=".053763" stop-color="#f8922c"/><stop offset=".5283" stop-color="#f89f2c"/><stop offset="1" stop-color="#f8a72c"/></linearGradient><linearGradient id="T" gradientTransform="matrix(-.3273 -.9449 -.9449 .3273 -844.9094 570.8296)" gradientUnits="userSpaceOnUse" x1="157.2434" x2="173.1232" xlink:href="#S" y1="-1040.9341" y2="-1040.9341"/><linearGradient id="U" gradientTransform="matrix(.8747 -.4847 -.4847 -.8747 89.9956 418.7966)" gradientUnits="userSpaceOnUse" x1="320.2249" x2="339.8583" xlink:href="#Q" y1="220.1902" y2="220.1902"/><linearGradient id="V" gradientTransform="matrix(.8747 -.4847 -.4847 -.8747 89.9956 418.7966)" gradientUnits="userSpaceOnUse" x1="322.1017" x2="337.9815" xlink:href="#S" y1="220.5779" y2="220.5779"/><path d="m278.1 171.4c2.5-1.2 4.4-3.7 4.7-6.5.2-1.9-.2-3.9-.6-5.7-.4-1.9-.9-3.8-.6-5.7.3-2.2 1.4-4.1 2.5-6 1.1-2 2.3-4.1 2.5-6.4.1-1.8-.3-3.6-.8-5.3-.2-.7-.4-1.4-.5-2.1-.5-2.4-.6-4.9-.1-7.3 0-.1 0-.2.1-.3.1-.6.2-1.3.1-2s-.6-1.6-1.4-1.7h-.1v.1c-.4.7-.6 1.5-.8 2.3-.1.6-.3 1.1-.5 1.7-.4 1-1.2 2-1.9 2.9-1 1.3-2 2.6-2.2 4.2-.1.5 0 .9 0 1.4 0 .6 0 1.2-.1 1.8h.2c.2-.6.1-1.3.1-1.9 0-.4 0-.9 0-1.3.2-1.6 1.1-2.8 2.2-4.1.7-.9 1.4-1.9 1.9-2.9.2-.5.4-1.1.5-1.7.2-.7.4-1.5.8-2.2.7.2 1.1.9 1.2 1.6.1.6 0 1.3-.1 1.9 0 .1 0 .2-.1.3-.4 2.4-.4 5 .1 7.4.2.7.3 1.4.5 2.1.5 1.7 1 3.5.8 5.3-.2 2.3-1.4 4.3-2.5 6.3-1.1 1.9-2.2 3.9-2.5 6.1-.2 1.9.2 3.9.6 5.7.4 1.9.9 3.8.6 5.7-.3 2.7-2.1 5.2-4.6 6.4z" fill="#a1b2aa"/><path d="m278.4 147c0-.1.1-.1.1-.2l.2.1c0 .1-.1.1-.1.2zm.4-.9.1-.2.2.1-.1.2zm.5-.8c0-.1.1-.1.1-.2l.2.1c0 .1-.1.1-.1.2zm.4-.9c0-.1.1-.1.1-.2l.2.1c0 .1-.1.1-.1.2zm.4-.9c0-.1.1-.1.1-.2l.2.1c0 .1-.1.1-.1.2zm.3-.9c0-.1.1-.2.1-.2l.2.1c0 .1-.1.2-.1.2zm.3-.9c0-.1 0-.2.1-.2l.2.1c0 .1 0 .2-.1.2zm.3-.9c0-.1 0-.2.1-.2h.2c0 .1 0 .2-.1.2zm.3-.9c0-.1 0-.2 0-.2h.2v.2zm.1-1c0-.1 0-.2 0-.2h.2v.2zm.1-.9c0-.1 0-.2 0-.2h.2v.2zm.1-1c0-.1 0-.2 0-.2h.2v.2zm0-1.2h.2v.2h-.2zm0-1h.2v.2h-.2zm0-.7c0-.1 0-.2 0-.2h.2v.2zm0-1v-.1-.1h.2v.1.1zm.1-.9c0-.1 0-.2 0-.2h.2v.2zm.2-1c0-.1 0-.2.1-.2h.2c0 .1 0 .2-.1.2zm.3-.9c0-.1 0-.2.1-.2l.2.1c0 .1 0 .2-.1.2zm.3-.9.1-.2.2.1-.1.2zm.3-.9.1-.2.2.1-.1.2zm.3-1c0-.1.1-.2.1-.2l.2.1c0 .1-.1.2-.1.2zm.3-.9c0-.1 0-.2.1-.2h.2c0 .1 0 .2-.1.2zm.2-.9c0-.1 0-.2 0-.2h.2v.2zm.2-.9c0-.1 0-.2 0-.2h.2v.2zm0-1.2h.2v.2h-.2c0-.1 0-.2 0-.2z" fill="#a1b2aa"/><path d="m283.9 171c2.8-.6 5.1-3.1 5.6-6 .1-.6.1-1.3.1-1.9 0-.8 0-1.6.2-2.3.4-1.6 1.4-2.9 2.4-4.3 1.1-1.5 2.3-3 2.5-4.9.1-1-.1-2-.3-3-.2-1.1-.4-2.2-.2-3.3.1-.4.2-.8.3-1.2.2-.6.4-1.3.4-2s-.5-1.4-1.1-1.7c-.4-.2-.8-.2-1.2 0-.6.4-.7 1.1-.8 1.8 0 .2-.1.4-.1.6-.2 1.1-.9 1.9-1.6 2.8-.4.5-.9 1.1-1.2 1.7-.5.9-.7 1.9-1 2.8-.2.8-.4 1.7-.8 2.5-.7 1.5-2.2 2.8-3.8 3.2v.2c1.7-.5 3.2-1.7 3.9-3.3.4-.8.6-1.7.8-2.5.2-.9.5-1.9.9-2.8.3-.6.8-1.1 1.2-1.7.7-.9 1.4-1.7 1.7-2.8 0-.2.1-.4.1-.6.1-.6.2-1.3.7-1.6.4-.2.8-.1 1 0 .6.3 1 1 1 1.6 0 .7-.2 1.3-.4 1.9-.1.4-.3.8-.4 1.3-.2 1.1 0 2.3.2 3.4.2 1 .4 2 .3 3-.2 1.8-1.3 3.3-2.4 4.8-1 1.3-2 2.7-2.4 4.3-.2.8-.2 1.6-.2 2.3 0 .6 0 1.2-.1 1.9-.4 2.8-2.7 5.2-5.4 5.8z" fill="#a1b2aa"/><path d="m274.4 170.7.2-.1s-1.5-4.3-1.1-10h-.2c-.4 5.8 1.1 10.1 1.1 10.1z" fill="#a1b2aa"/><path d="m181.7 46.8h90.2v116.5h-90.2z" fill="#ededed" stroke="#b3b3b3" stroke-miterlimit="10" stroke-width=".25"/><path d="m256.5 109.8h10.4v1.3h-10.4z" fill="#b8c1cc"/><path d="m187.5 109.8h9.8v1.3h-9.8z" fill="#b8c1cc"/><path d="m198.9 109.8h32.7v1.3h-32.7z" fill="#b8c1cc"/><path d="m239.2 109.8h15.7v1.3h-15.7z" fill="#b8c1cc"/><path d="m233.3 109.8h4.2v1.3h-4.2z" fill="#b8c1cc"/><path d="m216.3 112.5h50.6v1.3h-50.6z" fill="#b8c1cc"/><path d="m187.5 112.5h27.2v1.3h-27.2z" fill="#b8c1cc"/><path d="m187.5 115.1h13v1.3h-13z" fill="#b8c1cc"/><path d="m202.1 115.1h26.6v1.3h-26.6z" fill="#b8c1cc"/><path d="m230.4 115.1h11.8v1.3h-11.8z" fill="#b8c1cc"/><path d="m243.8 115.1h23.1v1.3h-23.1z" fill="#b8c1cc"/><path d="m193.4 117.8h16.1v1.3h-16.1z" fill="#b8c1cc"/><path d="m211.2 117.8h18.8v1.3h-18.8z" fill="#b8c1cc"/><path d="m187.5 117.8h4.3v1.3h-4.3z" fill="#b8c1cc"/><path d="m231.7 117.8h17.9v1.3h-17.9z" fill="#b8c1cc"/><path d="m187.5 79.6h79.4v28.2h-79.4z" fill="none" stroke="#b8c1cc" stroke-miterlimit="10" stroke-width=".7742"/><path d="m187.5 85.2h45" fill="none" stroke="#b8c1cc" stroke-miterlimit="10" stroke-width=".7742"/><path d="m187.5 123.5h79.4v11.4h-79.4z" fill="none" stroke="#b8c1cc" stroke-miterlimit="10" stroke-width=".7742"/><path d="m187.5 129.2h79.3" fill="none" stroke="#b8c1cc" stroke-miterlimit="10" stroke-width=".7742"/><path d="m232.5 79.6v11.3" fill="none" stroke="#b8c1cc" stroke-miterlimit="10" stroke-width=".7742"/><path d="m187.5 90.9h79.3" fill="none" stroke="#b8c1cc" stroke-miterlimit="10" stroke-width=".7742"/><path d="m187.5 96.5h79.3" fill="none" stroke="#b8c1cc" stroke-miterlimit="10" stroke-width=".7742"/><path d="m187.5 102.1h79.3" fill="none" stroke="#b8c1cc" stroke-miterlimit="10" stroke-width=".7742"/><path d="m192 104.9c0 .7-.6 1.3-1.3 1.3s-1.3-.6-1.3-1.3.6-1.3 1.3-1.3c.8 0 1.3.6 1.3 1.3z" fill="none" stroke="#b8c1cc" stroke-miterlimit="10" stroke-width=".7742"/><path d="m214.8 104.9c0 .7-.6 1.3-1.3 1.3s-1.3-.6-1.3-1.3.6-1.3 1.3-1.3 1.3.6 1.3 1.3z" fill="none" stroke="#b8c1cc" stroke-miterlimit="10" stroke-width=".7742"/><path d="m248 90.9v5.6" fill="none" stroke="#b8c1cc" stroke-miterlimit="10" stroke-width=".7742"/><path d="m206.5 123.5v5.7" fill="none" stroke="#b8c1cc" stroke-miterlimit="10" stroke-width=".7742"/><path d="m236.3 123.5v5.7" fill="none" stroke="#b8c1cc" stroke-miterlimit="10" stroke-width=".7742"/><path d="m221.9 129.2v5.6" fill="none" stroke="#b8c1cc" stroke-miterlimit="10" stroke-width=".7742"/><path d="m201.7 96.5v5.6" fill="none" stroke="#b8c1cc" stroke-miterlimit="10" stroke-width=".7742"/><path d="m232.5 96.5v5.6" fill="none" stroke="#b8c1cc" stroke-miterlimit="10" stroke-width=".7742"/><path d="m205.3 79.6v5.6" fill="none" stroke="#b8c1cc" stroke-miterlimit="10" stroke-width=".7742"/><path d="m194.3 103.5h12.6v2.8h-12.6z" fill="#b8c1cc"/><path d="m217 103.5h7.5v2.8h-7.5z" fill="#b8c1cc"/><path d="m232.4 104.9c0 .7-.6 1.3-1.3 1.3s-1.3-.6-1.3-1.3.6-1.3 1.3-1.3 1.3.6 1.3 1.3z" fill="none" stroke="#b8c1cc" stroke-miterlimit="10" stroke-width=".7742"/><path d="m234.7 103.5h13.4v2.8h-13.4z" fill="#b8c1cc"/><path d="m267.2 149.8h-.8v-.8h.8zm-1.5 0h-.8v-.8h.8zm-1.6 0h-.8v-.8h.8zm-1.5 0h-.8v-.8h.8zm-1.6 0h-.8v-.8h.8zm-1.5 0h-.8v-.8h.8zm-1.6 0h-.8v-.8h.8zm-1.5 0h-.8v-.8h.8zm-1.6 0h-.8v-.8h.8zm-1.5 0h-.8v-.8h.8zm-1.5 0h-.8v-.8h.8zm-1.6 0h-.8v-.8h.8zm-1.5 0h-.8v-.8h.8zm-1.6 0h-.8v-.8h.8zm-1.5 0h-.8v-.8h.8zm-1.6 0h-.8v-.8h.8zm-1.5 0h-.8v-.8h.8zm-1.6 0h-.8v-.8h.8zm-1.5 0h-.8v-.8h.8zm-1.6 0h-.8v-.8h.8zm-1.5 0h-.8v-.8h.8zm-1.6 0h-.8v-.8h.8zm-1.5 0h-.8v-.8h.8zm-1.6 0h-.8v-.8h.8zm-1.5 0h-.8v-.8h.8z" fill="#7c8893"/><path d="m214.6 147h13.4v2.8h-13.4z" fill="#b8c1cc"/><path d="m267.2 155.5h-.8v-.8h.8zm-1.5 0h-.8v-.8h.8zm-1.6 0h-.8v-.8h.8zm-1.5 0h-.8v-.8h.8zm-1.6 0h-.8v-.8h.8zm-1.5 0h-.8v-.8h.8zm-1.6 0h-.8v-.8h.8zm-1.5 0h-.8v-.8h.8zm-1.6 0h-.8v-.8h.8zm-1.5 0h-.8v-.8h.8zm-1.5 0h-.8v-.8h.8zm-1.6 0h-.8v-.8h.8zm-1.5 0h-.8v-.8h.8zm-1.6 0h-.8v-.8h.8z" fill="#7c8893"/><g fill="#b8c1cc"><path d="m231.6 152.7h13.4v2.8h-13.4z"/><path d="m212.5 136.9h34.5v1.3h-34.5z"/><path d="m199.3 136.9h11.5v1.3h-11.5z"/><path d="m258.2 136.9h8.7v1.3h-8.7z"/><path d="m248.6 136.9h8v1.3h-8z"/><path d="m187.5 136.9h10.1v1.3h-10.1z"/><path d="m188.4 139.5.7 1.3h41.3v-1.3z"/><path d="m232.1 139.5h21.7v1.3h-21.7z"/><path d="m188.6 54.8v2.9h78.2v-2.9z"/><path d="m188.6 60.1v2.9h78.2v-2.9z"/><path d="m256.4 67.2h10.4v1.3h-10.4z"/><path d="m187.4 67.2h9.8v1.3h-9.8z"/><path d="m198.9 67.2h32.7v1.3h-32.7z"/><path d="m239.1 67.2h15.7v1.3h-15.7z"/><path d="m233.3 67.2h4.2v1.3h-4.2z"/><path d="m216.3 69.8h50.6v1.3h-50.6z"/><path d="m187.4 69.8h27.2v1.3h-27.2z"/><path d="m187.4 72.5h13v1.3h-13z"/><path d="m202.1 72.5h26.6v1.3h-26.6z"/><path d="m230.4 72.5h11.8v1.3h-11.8z"/></g><ellipse cx="140" cy="205.6" fill="#7f7c7c" opacity=".15" rx="65.8" ry="7.1"/><ellipse cx="171.4" cy="184.2" fill="#7f7c7c" opacity=".15" rx="72.7" ry="11.9"/><path d="m71.4 112.6h89.7c2.8 0 5 2.2 5 5v19.5c0 2.8-2.2 5-5 5h-89.7c-2.8 0-5-2.2-5-5v-19.5c0-2.7 2.2-5 5-5z" fill="url(#b)"/><path d="m93.4 123.9h50.4v7.8h-50.4z" fill="#14416d" transform="matrix(-1 0 0 -1 237.2155 255.5037)"/><path d="m96.2 123.9h50.4v7.8h-50.4z" fill="#c06c84" transform="matrix(-1 0 0 -1 242.7865 255.5037)"/><path d="m81.5 118.8h1.9v18.4h-1.9z" fill="#14416d" transform="matrix(-1 0 0 -1 164.8859 256.021)"/><path d="m75.9 118.8h1.9v18.4h-1.9z" fill="#14416d" transform="matrix(-1 0 0 -1 153.7439 256.021)"/><path d="m70.4 118.8h1.9v18.4h-1.9z" fill="#14416d" transform="matrix(-1 0 0 -1 142.602 256.021)"/><path d="m82.4 118.8h1.9v18.4h-1.9z" fill="#0069aa" transform="matrix(-1 0 0 -1 166.5572 256.021)"/><path d="m76.8 118.8h1.9v18.4h-1.9z" fill="#0069aa" transform="matrix(-1 0 0 -1 155.4153 256.021)"/><path d="m71.2 118.8h1.9v18.4h-1.9z" fill="#0069aa" transform="matrix(-1 0 0 -1 144.2733 256.021)"/><path d="m62.5 141.7h89.7c2.8 0 5 2.2 5 5v23.1c0 2.8-2.2 5-5 5h-89.7c-2.8 0-5-2.2-5-5v-23.1c0-2.7 2.3-5 5-5z" fill="url(#d)"/><path d="m84.5 154.4h50.4v8.7h-50.4z" fill="#e76f32" transform="matrix(-1 0 0 -1 219.5136 317.4738)"/><path d="m87.3 154.4h50.4v8.7h-50.4z" fill="#f7aa46" transform="matrix(-1 0 0 -1 225.0846 317.4738)"/><path d="m72.7 148.7h1.9v20.6h-1.9z" fill="#4aaf45" transform="matrix(-1 0 0 -1 147.1839 318.0551)"/><path d="m67.1 148.7h1.9v20.6h-1.9z" fill="#4aaf45" transform="matrix(-1 0 0 -1 136.0421 318.0551)"/><path d="m61.5 148.7h1.9v20.6h-1.9z" fill="#e76f32" transform="matrix(-1 0 0 -1 124.9001 318.0551)"/><path d="m73.5 148.7h1.9v20.6h-1.9z" fill="#9ae595" transform="matrix(-1 0 0 -1 148.8553 318.0551)"/><path d="m67.9 148.7h1.9v20.6h-1.9z" fill="#9ae595" transform="matrix(-1 0 0 -1 137.7133 318.0551)"/><path d="m62.4 148.7h13.2v20.6h-13.2z" fill="#f7aa46" transform="matrix(-1 0 0 -1 137.899 318.0551)"/><path d="m127.1 74.1-3.3-3.3-3.5 3.5-1.8-1.8c-.1-1.1-.1-2.3 0-3.6l1.9 1.9 3.5-3.5 3.3 3.3 3.2-3.2 3.2 3.2c0 1.2.1 2.4.1 3.7l-3.3-3.3z" fill="url(#f)"/><path d="m123.8 74.4 3.3 3.3 3.2-3.2 3.1 3.1c-4.3 1.2-8.5 2.3-12.8 3.5-.4-.9-1-2.4-1.4-4.3l1.1 1.1z" fill="url(#g)"/><path d="m120.3 74.4 3.5-3.5 3.3 3.3 3.2-3.2 3.3 3.3c0 1.1.1 2.1.1 3.2-.1 0-.2.1-.4.1l-3.1-3.1-3.2 3.2-3.3-3.3-3.5 3.5-1.1-1.1c-.3-1.3-.6-2.7-.7-4.3z" fill="#598247"/><path d="m232.7 130.1-60 1.5-61.8 1.5-3.8 46.5v.6c10 3.2 21.4 6.1 34.1 8.3 11.7 2 22.5 3 32.2 3.3 9.1-.5 19.3-1.7 30.4-4 13.2-2.7 25-6.3 34.9-10.2-2-15.8-4-31.7-6-47.5z" fill="url(#i)"/><path d="m50 105.6 122.4-48.5 121.3 44.9-120.7 57.3z" fill="url(#j)"/><path d="m50 105.6.1 5.3 123 53.7-.1-5.3z" fill="url(#k)"/><path d="m293.7 102-120.7 57.3.1 5.3 120.7-57.3z" fill="url(#l)"/><path d="m174.8 104.2c15.3 1.6 30 4.6 43.8 9 9.1 2.9 15.6 5.8 22.2 12 3.9 3.7 7.3 8.3 10.1 13.4 1.3-.7 2.8-.4 3.8.8.9 1.2 1.1 2.8.5 4.1 2.2-1.3 4.9-1 6.8 1l28.3 29.7-1.7 1.8-20.2-21.9 19.4 22.7-2.1 2.1-3.9-4.1 3.3 4.6-1.5 1.5-.4.4-8.3-9.2 6.6 11-1.1 1.1-17.6-22.7 15.1 25.3-.9 1-23.4-34.8c-1.6-2.3-1.6-5.5-.2-7.8-1.2.6-2.7.2-3.6-.9-1.2-1.5-1.1-3.8.2-5.2 0 0 .1 0 .1-.1-2.7-5-6.1-9.5-9.9-13.2-6.4-6.1-12.9-8.9-21.9-11.8-13.7-4.4-28.4-7.4-43.6-8.9z" fill="url(#m)"/><path d="m127.1 70.6-3.3-3.3-3.5 3.5-1.9-1.9c0-.5.1-1 .2-1.5 0 0 .6-3.9 3.4-8 .2-.3.6-.9 1.4-1.3 1-.5 2.1-.3 2.7-.1.3.2.9.6 1.8.7 1.1.2 1.9-.1 2.2-.3.8.1 1.9.2 3.2.8 1.9.8 3 2 5.1 4.4 2.2 2.4 3.8 4.3 4.8 5.4 1.2-2.8 2.5-5.6 3.7-8.5 1.2.2 2.5.3 3.7.5.2 1.8.4 5-.9 8.5-.4 1.1-2.8 7.7-6.8 7.9-1.7.1-3.2-1.1-5.4-2.8-1.9-1.5-3.2-3.1-4-4.3v.4l-3.2-3.2z" fill="url(#n)"/><path d="m126.8 77h18.5v26.5h-18.5z" fill="#fff" transform="matrix(.8773 .4799 -.4799 .8773 60.0034 -54.2442)"/><path d="m146.4 86.9-12.5-6.8c-.1-.1-.2-.3-.1-.4s.3-.2.4-.1l12.5 6.8c.1.1.2.3.1.4s-.3.2-.4.1z" fill="#b1b1b1"/><path d="m144.9 89.6-12.5-6.8c-.1-.1-.2-.3-.1-.4s.3-.2.4-.1l12.5 6.8c.1.1.2.3.1.4s-.2.2-.4.1z" fill="#b1b1b1"/><path d="m143.5 92.3-12.5-6.8c-.1-.1-.2-.3-.1-.4s.3-.2.4-.1l12.5 6.8c.1.1.2.3.1.4s-.3.2-.4.1z" fill="#b1b1b1"/><path d="m142 95-12.5-6.8c-.1-.1-.2-.3-.1-.4s.3-.2.4-.1l12.5 6.8c.1.1.2.3.1.4s-.3.1-.4.1z" fill="#b1b1b1"/><path d="m140.5 97.7-12.5-6.9c-.1-.1-.2-.3-.1-.4s.3-.2.4-.1l12.5 6.8c.1.1.2.3.1.4-.1.2-.2.2-.4.2z" fill="#b1b1b1"/><ellipse cx="127.7" cy="96.1" fill="#9c9b9b" rx="3" ry="3" transform="matrix(.6694 -.7429 .7429 .6694 -29.1369 126.6538)"/><ellipse cx="127.7" cy="96.1" fill="#fff" rx="2.7" ry="2.7" transform="matrix(.7071 -.7071 .7071 .7071 -30.5147 118.4594)"/><path d="m129.3 96.9c-.5.9-1.5 1.2-2.4.7s-1.2-1.5-.7-2.4 1.5-1.2 2.4-.7c.8.5 1.1 1.6.7 2.4z" fill="#b1b1b1"/><path d="m137.9 100.2h-.1s0 0-.1 0c-.2.1-.3.1-.5.1-.1 0-.1 0-.2 0 0-.1-.1-.2-.2-.2h-.1c-.1 0-.2 0-.3.1-.1-.1-.2-.1-.3-.1s-.1 0-.2 0c0-.1-.2-.3-.3-.2-.2.1-.3.1-.4.2-.2.1-.4.1-.5.1.2 0 .3-.1.5-.2.4-.1 1.1-.4.6-.8-.3-.3-.6-.3-.9-.1 0-.6-.6-.8-1.1-.7s-.9.7-.7 1.2c-.1 0-.2 0-.4 0-.3-.1-.6-.3-.7-.6-.1-.4.2-.7.5-.8s.5-.1.8-.1c.3.1.4-.4.1-.4-1.9-.4-2.7 2-.6 2.3h.5c.1.1.2.1.3.2-.2.1-.3.2-.5.4-.1.1 0 .3.1.3.5.2.8-.1 1.1-.4h.7c0 .1.1.2.2.2.3 0 .5 0 .8-.1h.1.5c.1.1.3.1.5.1-.3.2-.7.4-1 .5s-.1.5.2.4c.7-.3 1.3-.7 1.9-1.2.1 0-.1-.3-.3-.2zm-4.3-.5c-.1-.1-.1-.4.1-.6s.5-.2.6-.1.1.4-.1.6-.5.3-.6.1z" fill="#14416d"/><path d="m150 61 .9-2.3s-2-.9-2.1-.9-2.4.8-2.4.8l.9 2.2z" fill="#aa5842"/><path d="m125.5 55.2c-.1 1.2-.1 2.3-.3 3.3.2.2 1.2.8 2.5.7.9-.1 1.5-.5 1.8-.7-.2-1.2-.3-2.4-.5-3.6-1.2-.3-2.3-.6-3.5-.9.1.4.1.8 0 1.2z" fill="#aa5842"/><path d="m131.1 49.7s1-1 .4-2.1c-1-1.7-6.8-2.2-8.6.9-1.3 2.2-.3 5.8 2.8 7.8 1.8-2.2 3.6-4.4 5.4-6.6z" fill="#3c3c3b"/><path d="m129.1 55.1-.7-.4c-.1 0-.1 0-.2-.1h-.1l-1.3.3c-.1.3-.2.6-.3.9.1.2.4 1 1.2 1.5.6.4 1.2.4 1.7.4-.1-.8-.2-1.7-.3-2.6z" fill="#8e4d40"/><path d="m131.1 49.7c.1.7.2 1.2.2 1.6v1.1c0 1.6.1 1.6.1 2.4 0 1.2 0 1.9-.5 2.2-.5.4-1.2.2-2.3 0-.7-.2-1.3-.3-1.9-.8-.6-.6-.8-1.3-.9-1.6 0 0-.2.4-.5.1s-1.1-2.1-.4-2.3 1 .8 1 .8l.5-.5s-.5-2.2.4-2.7c.2-.1.4-.1.5-.1 1 .1 2.1 0 3.8-.2z" fill="#aa5842"/><path d="m130.2 54.7c.1.6.6 1 1.2 1 0-.1 0-.2 0-.3 0-.2 0-.5 0-.8z" fill="#fff"/><path d="m147.1 60.3c-.4-.7-.6-1.2-.7-1.6s-.3-1.1 0-1.3h.2c.3 0 .5.5.7.9s.4.9.8 1.5c-.4.1-.7.3-1 .5z" fill="#aa5842"/><path d="m125 83.7c.2-.1.4-.4.8-.4.2 0 .3 0 1.1.3 0 0 .4.2 1.3.6.1.1.3.2.3.4 0 .1 0 .2-.1.3s-.3.1-.4.1c-.4-.1-.7-.3-1.1-.4.9.6 1.8 1.3 2.7 1.9.2.1.2.3.1.5-.1.1-.3.2-.5.1-.5-.3-1.1-.6-1.6-.9.5.4.9.8 1.4 1.2.2.1.2.3.1.5s-.3.2-.5.1c-.5-.3-1-.7-1.5-1 .4.4.9.8 1.3 1.2.1.1.1.3 0 .5s-.4.2-.6 0c-.5-.4-.9-.7-1.4-1.1.4.4.8.7 1.2 1.1.1.1 0 .3-.1.4s-.3.1-.4.1c-1.5-1.2-2.7-2.1-3.1-2.5-.1-.1-.3-.3-.4-.5-.1-.3-.1-.5-.1-.7-.2-.1-.5-.3-.7-.5l1.5-1.9c.2.2.4.4.7.6z" fill="#aa5842"/><path d="m111.1 75.7c-1.4-3.5 0-7.1.5-8.5 1.8-4.6 5.5-6.8 6.6-7.4 2.7-1.6 5.3-1.9 6.7-2-2.5 2-3.7 4.2-4.3 5.4-1.1 2.4-1.3 4.6-1.5 6.2-.2 1.4-.2 2.6-.1 3.5.4 1.4 1.1 3 2.1 4.8 1.3 2.4 2.9 4.1 4.1 5.3-.8.9-1.5 1.8-2.3 2.7-1.1-.7-2.8-1.7-4.7-3.1-4-3-6.1-4.5-7.1-6.9z" fill="url(#o)"/><path d="m200.3 159.7s.2-.2-1.2-.8c-.5-.2-2-.4-3.8-.6.5 4.9.9 9.1 1.1 12.5.3 3.6.3 4.9-.3 6.5-1.7 4.1-6.4 5.6-11.2 7.1-4.4 1.4-11.5 3.4-19.8.9-6.1-1.8-6.6-3.4-6.6-3.4-.6.2-.7 1-.8 2.6s-.1 13.7-.1 13.7.2 4.2 4.3 6.4 26.1 6.1 37.1-4c1.1-6.4 2-13.9 2.2-22.3.1-6.9-.3-13.1-.9-18.6z" fill="url(#p)"/><path d="m165 185.3c8.3 2.5 15.4.5 19.8-.9 4.9-1.6 9.5-3.1 11.2-7.1.7-1.6.6-2.9.3-6.5-.3-3.4-.6-7.6-1.1-12.5-3.6-.4-8.4-.7-10.1-.2 0 0-.5.2-.7 1s-5.7 13.2-9.9 15.7-15.5 6.9-16 7.1c0 0 .4 1.5 6.5 3.4z" fill="#598247"/><path d="m192.7 157.9c-3-.2-6.3-.3-7.6.1 0 0-.5.2-.7 1s-5.7 13.2-9.9 15.7c-3.1 1.9-10.1 4.8-13.8 6.2 10.7-.5 14 4 14 4 1.9-1.5 8.7-2.6 8.7-2.6s2.7-3.1 3.3-8.1c.7-4.4 3-12.7 6-16.3z" fill="#598247"/><path d="m150.2 198.3c.8 0 1.7-.1 2.5-.1-.2 1.4-.4 2.7-.6 4.1 0 0-3.5 1.6-4.9 1.1-.6-.2-.9-.5-1-.7.7-.2 1.4-.4 2.2-.7.5-.2.9-.3 1.3-.5.1-1.1.3-2.2.5-3.2z" fill="#f29ea4"/><path d="m147.1 203.3c.1 0 .3.1.9.1.2 0 1 0 2.1-.4.4-.1.7-.3 1.1-.5.4-.3.7-.6.8-.8.2.3.4.8.4 1.5 0 .3 0 .7-.3 1-.4.5-1.2.4-1.6.4-3.6-.3-6.4.2-6.6-.5 0-.3.3-.7 2.1-1.5.3.2.6.5 1.1.7z" fill="url(#r)"/><path d="m156.6 198.9c.8 0 1.7-.1 2.5-.1-.2 1.4-.4 2.7-.6 4.1 0 0-3.5 1.6-4.9 1.1-.6-.2-.9-.5-1-.7.7-.2 1.4-.4 2.2-.7.5-.2.9-.3 1.3-.5.2-1.1.4-2.2.5-3.2z" fill="#f29ea4"/><path d="m153.6 203.9c.1 0 .3.1.9.1.2 0 1 0 2.1-.4.4-.1.7-.3 1.1-.5.4-.3.7-.6.9-.8.1.2.2.4.3.7.1.4.1.7.1.8 0 .2 0 .7-.3 1-.4.5-1.2.4-1.6.4-3.6-.3-6.4.2-6.6-.5 0-.3.3-.7 2.1-1.5.2.2.5.5 1 .7z" fill="url(#s)"/><path d="m172.9 173.9c2.5.3 5 .7 7.4 1-.3 1.4-1.3 4.7-4.2 6.7-1.9 1.3-3.7 1.6-6.8 1.9-4 .4-7.4.2-9.7-.1-2.4 5.8-4.8 11.6-7.2 17.4-1-.1-1.9-.1-2.9-.2.6-7.6 1.3-13.3 1.7-16 .2-1.1.5-3.1 1.8-5.1.3-.4.7-1 1.3-1.6 1.4-1.3 3-1.7 6.1-2.2s5-.7 7.4-1.1c2.2-.2 4-.5 5.1-.7z" fill="url(#u)"/><path d="m161.9 172.1c-.1-.2-.2-.5-.4-.7 0 0 0 0-.1 0s-.2-.1-.8-.1c0 0-.3 0-1.1 0-.1 0-.3 0-.4.1v.2c0 .1.1.2.3.2.3 0 .6.1.9.1-.8.1-1.6.2-2.4.3-.1 0-.3.1-.2.3 0 .1.1.2.3.2.5 0 .9 0 1.4-.1-.4.1-.9.2-1.3.3-.1 0-.3.1-.3.3 0 .1.1.3.3.3.4-.1.9-.1 1.3-.2-.4.1-.9.2-1.3.3-.1 0-.2.2-.2.3s.2.3.4.2c.4-.1.9-.1 1.3-.2-.4.1-.8.2-1.2.3-.1.1-.1.2-.1.3s.1.2.2.2c1.4-.2 2.5-.4 2.9-.5.1 0 .3-.1.5-.2s.3-.3.3-.4c.2 0 .4 0 .7-.1 0-.5 0-1-.1-1.5-.4 0-.6 0-.9.1z" fill="#ffc0c2"/><path d="m195.9 150.9c.9.4 1.7 1.4 1.7 2.5.1 1-.4 2.2-1.2 2.5-.7.2-1-.4-1.9-.3-1.1.2-1.1 1.2-2.2 1.4-.8.1-1-.5-1.9-.4-1.1.1-1.2 1.2-2.3 1.4s-1.3-.9-2.6-.9c-1.4 0-1.8 1.3-3 1.1-1-.1-1-1-2.2-1.4-1.2-.5-2 .2-3 .1-2.6-.1-6.1-4.6-5.1-8.8.1-.3.7-2.5 2.8-3.8 3-1.8 7.3-.7 9.4 1.4.6.7 1 1.3 2 1.8 1.5.8 2.2 0 3.7.7 1.7.8 1.5 2.1 3.1 2.5 1.2.4 1.6-.3 2.7.2z" fill="#e76f32"/><path d="m177.1 155.3c-.3.1-.6.1-1 .3 0 0-.9.4-1.7 1.1-.9.8-2.5 4.9-3.7 10.8-2.8 1.4-5.7 2.7-8.5 4.1.1.7.2 1.4.4 2.1 2.1 0 4.9-.2 8.1-1.2 2.2-.7 4-1.5 5.4-2.3.3-4.9.6-9.9 1-14.9z" fill="url(#w)"/><path d="m183 172.7c.3.7 2.6 6.8-.3 9.8-.4.4-1.5 1.4-6.8 1.9-4 .4-7.4.2-9.7-.1-2.4 5.8-4.8 11.6-7.2 17.3-1-.1-2.1-.1-3.1-.2.3-6.8 1.2-12.2 1.9-16 .6-3.2 1.4-6.3 3.9-7.6 1-.6 1.8-.5 4.2-.8 2-.2 4.8-.6 8.1-1.3.2-1.1.5-2.2.7-3.2 2.7.2 5.5.2 8.3.2z" fill="url(#x)"/><path d="m161.1 178.3c-.4 0-.8-.3-.9-.7l-3.9-12.4c-.2-.5.1-1 .6-1.2.5-.2 1 .1 1.2.6l3.6 11.6 12.4-1.4c.5-.1 1 .3 1.1.8.1.5-.3 1-.8 1.1l-13.3 1.6c.1 0 .1 0 0 0z" fill="#d7dadc"/><path d="m183.6 171.4h.1c0-.1-.1-.1-.1 0z" fill="url(#z)"/><path d="m183.7 171.3h.1v-.1s0 .1-.1.1z" fill="url(#A)"/><path d="m182.1 155.7-.8-.5c-1.5 0-3-.1-4.5-.1-1.2 1.1-2 2.1-2.5 2.8-.9 1.3-2.2 3.2-2.2 5.8 0 1.5.4 2.7.7 3.5 0 1.4-.1 2.7-.1 4.1v2.8c1.6.4 3.8.7 6.4.6 1.8-.1 3.3-.3 4.6-.6.7-1.6 1.9-4.6 1.7-8.6-.3-4.9-2.3-8.4-3.3-9.8z" fill="url(#B)"/><path d="m179.7 174.1c.1-.1.1-.1 0 0z" fill="url(#C)"/><path d="m176.8 154.1c0 .8-.2 1.7-.2 1.7-.2 1.2.4 2.3 1.2 2.6 1.3.5 2.6-1 2.7-1.2.6-.6.8-1.3.8-1.7-.2-.3-.5-.7-.9-1.3-.4-.5-.7-1-.9-1.5-.3-.5-.6-1.3-.8-2.3-.6 1.3-1.2 2.5-1.9 3.7z" fill="#ffc0c2"/><path d="m179.6 152.9c0 .4 0 .9-.3 1.4-.6 1-1.9 1.6-2.6 1.3 0-.2.1-.6.1-1.1.1-.1.3-.1.3-.1 1.2-1.8 1.8-2.3 2.2-2.4.1.4.2.6.3.9 0-.1 0-.1 0 0z" fill="#f29ea4"/><path d="m173.7 147.6c-.7.9.7 6.6 1.2 7.3s1.9.1 2.8-.2 1.8-1.3 1.9-1.7-.3-1.4-.3-1.4.9.2.8-.6-.9-1.8-1.1-1.3-.2.5-.2.5-4.4-3.6-5.1-2.6z" fill="#ffc0c2"/><path d="m174.3 153.3 1.7-.4c.1.5-.2 1.1-.8 1.2-.3.1-.5 0-.7-.1-.1-.2-.1-.5-.2-.7z" fill="#fff"/><path d="m176.1 175.1c-.1-.2-.2-.4-.5-.6-.1-.1-.3-.1-1-.1 0 0-.4 0-1.3.1-.1 0-.3.1-.4.2v.3c.1.1.2.2.4.2h1.1c-1 .3-2 .5-3 .8-.2 0-.3.2-.2.4 0 .2.2.3.4.2.6-.1 1.1-.2 1.7-.3-.5.2-1.1.4-1.6.6-.2 0-.3.2-.3.4s.2.3.4.3c.5-.1 1.1-.3 1.6-.4-.5.2-1 .4-1.5.6-.2.1-.2.2-.2.4s.3.3.5.2c.5-.1 1-.3 1.5-.4-.5.2-.9.3-1.4.5-.1.1-.1.2-.1.4.1.1.2.2.3.2 1.7-.5 3-.9 3.4-1.1.1 0 .3-.1.5-.3s.3-.4.3-.5c.2-.1.5-.1.8-.2l-.6-2.1c-.3 0-.6.1-.8.2z" fill="#ffc0c2"/><path d="m181.4 155.2c.9.2 2.3.5 3.7 1.6 1.8 1.3 2.5 2.9 3 4.1.3.7 2.6 6.1.2 10.6-.7 1.3-1.6 2.1-1.7 2.3-.3.3-1.3 1.2-4 2.1-1.3.5-3.1 1-5.5 1.2-.3-.8-.5-1.6-.8-2.4 1.2-.5 3-1.5 4.7-3.2 1.2-1.2 2-2.4 2.5-3.3 0-1.8 0-3.6 0-5.4.1-1.3 0-3.5-1.1-5.8-.3-.7-.6-1.3-1-1.8z" fill="url(#D)"/><path d="m130.9 204.4c0-.2-.5-.3-1.6-.9-.5-.3-.9-.5-1.2-.7l-.9-.4c-.2-.1-.5-.1-.7-.2-.3-1.9-.6-3.8-.9-5.6-.9.1-1.7.2-2.6.3.5 1.8 1 3.6 1.6 5.4-.2.2-.8.8-.5 2.1.2 0 .6.1 1 .2.5.1 1.7.2 3.4.2 1.2-.2 2.4-.2 2.4-.4z" fill="#ffc0c2"/><path d="m131.1 204.5c-1 .1-1.7.1-2.6.1-1 0-2 0-3.4-.2-.4-.1-.8-.1-1-.2 0 0-.4.5.3.9l6.8-.2s.1-.2 0-.4c-.1.1-.1.1-.1 0z" fill="#312b30"/><path d="m129.9 203.8c-.8-.4-1.4-.8-1.8-1l-.9-.4v2.3h1.3 1.4z" fill="#312b30"/><path d="m108.1 167.8c0 .1.1.2.1.3.1.2.2.4.5.6.4.3.5.3.9.6.2.2.4.3.5.4.4.4.5.6.7.5.1 0 .2-.1.2-.3 0-.1 0-.2-.3-.5s-.4-.3-.4-.5c-.1-.2-.1-.3-.1-.4h.6c.3.1.5.2.6.3.2.3.5.6.7.9.1.2.4.2.5.1s.1-.3.1-.3l-.7-1c.3.1.5.3.6.4.4.4.6.8.8.8.1 0 .2-.1.2-.1s.1-.1.1-.1 0-.1-.1-.2c0 0 .1-.1.2-.1 0-.1 0-.2 0-.3s-.9-1.1-.7-.9l-1.5-.5s-.9-.5-1.2-.6c-.4-.1-1.3-.5-1.3-.5l-1.3-.5c-.3.5-.6 1-.9 1.4.4.3.8.4 1.2.5z" fill="#ffc0c2"/><path d="m113 168.4.2.2c.1.1 0 0 .2.3.1.1.2.2.3.4 0 0-.1 0-.1.1-.2-.3-.4-.6-.6-1-.1 0-.2 0-.2 0-.2-.1-.4-.2-.6-.3.1 0 .4.1.7.2 0 .1 0 .1.1.1z" fill="#f29ea4"/><path d="m108.1 167.8h-.1s.1-.1.3-.2c.1-.1.3-.1.3-.1-.2.1-.4.3-.4.4 0 0 0-.1-.1-.1z" fill="#f29ea4"/><path d="m112.3 168.7c.2.1.4.3.7.6.1.1.1.1.2.3.1.1.2.2.3.3-.3 0-.4-.4-.8-.8-.1-.1-.3-.3-.6-.4 0 0-.2-.2-.3-.3-.1 0-.7-.3-.7-.3.4.1.7.3.9.4.1 0 .2.1.3.2z" fill="#f29ea4"/><path d="m98 152.5c.5.4 1.1.9 1.7 1.5 2.4 2.7 2.7 5.9 2.7 7.3 2.2 1.6 4.4 3.1 6.7 4.7-.4.8-.9 1.7-1.3 2.5-2.9-.3-5.8-.5-8.7-.8-.5-5-.8-10.1-1.1-15.2z" fill="url(#E)"/><path d="m77.1 159.7s-.2-.2 1.2-.8c.5-.2 2-.4 3.8-.6-.5 4.9-.9 9.1-1.1 12.5-.3 3.6-.3 4.9.3 6.5 1.7 4.1 6.4 5.6 11.2 7.1 4.4 1.4 11.5 3.4 19.8.9 6.1-1.8 6.6-3.4 6.6-3.4.6.2.7 1 .8 2.6s.1 13.7.1 13.7-.2 4.2-4.3 6.4-26.1 6.1-37.1-4c-1.1-6.4-2-13.9-2.2-22.3-.1-6.9.2-13.1.9-18.6z" fill="url(#F)"/><path d="m112.3 185.3c-8.3 2.5-15.4.5-19.8-.9-4.9-1.6-9.5-3.1-11.2-7.1-.7-1.6-.6-2.9-.3-6.5.3-3.4.6-7.6 1.1-12.5 3.6-.4 8.4-.7 10.1-.2 0 0 .5.2.7 1s5.7 13.2 9.9 15.7 15.5 6.9 16 7.1c.1 0-.3 1.5-6.5 3.4z" fill="#0069aa"/><path d="m84.6 157.9c3-.2 6.3-.3 7.6.1 0 0 .5.2.7 1s5.7 13.2 9.9 15.7c3.1 1.9 10.1 4.8 13.8 6.2-10.7-.5-14 4-14 4-1.9-1.5-8.7-2.6-8.7-2.6s-2.7-3.1-3.3-8.1c-.6-4.4-3-12.7-6-16.3z" fill="#624b66"/><path d="m119.4 205.2c-1.2-.7-2.2-1.2-2.8-1.6l-.9-.4c-.2-.1-.5-.1-.7-.2.2-1.7.4-3.5.6-5.2l-3.2-.2c.2 1.8.5 3.6.7 5.5-.2.2-.8.8-.5 2.1.2 0 .6.1 1 .2 1.4.2 2.4.2 3.4.2.9 0 1.6 0 2.6-.1-.1-.2-.2-.3-.2-.3z" fill="#ffc0c2"/><path d="m119.6 205.4c-1 .1-1.7.1-2.6.1-1 0-2 0-3.4-.2-.4-.1-.8-.1-1-.2 0 0-.4.5.3.9l6.8-.2s.1-.2 0-.4c-.1 0-.1 0-.1 0z" fill="#312b30"/><path d="m123.9 201.9c-2.5-6.2-5.1-12.3-7.6-18.5-2.1.6-5.6 1.4-9.7 1.1-4-.3-9.2-.6-12.1-4.5-2.3-3.1-2.1-7-1.8-8.9 2.1-.9 4.3-1.8 6.4-2.6 1.7.9 3.4 1.8 5.2 2.7 1.6.4 3.7.9 6.3 1.6 8.3 2.2 10.5 3.1 12.1 5.1 1.2 1.5 1.6 2.9 2 4.9.9 4.1 2 10.3 2.6 18.3-1.3.2-2.3.5-3.4.8z" fill="url(#G)"/><path d="m112.5 202.5c-.7-5.5-1.5-11-2.2-16.5-3.7-.4-6.8-.8-9.2-1.1-8.3-1-10.2-1.3-11.7-2.9-.7-.8-2.5-3.2-1.5-8.9 3.5-1.1 7.1-2.2 10.6-3.4.9 1.1 1.9 2.2 2.8 3.2 1.8.2 4.4.6 7.6 1.2 7.1 1.3 8.6 2 9.6 3.3 1.3 1.8 1.2 4 .9 6.3-.5 4.3-1.5 10.7-4 18.7-.9.2-1.9.1-2.9.1z" fill="url(#H)"/><path d="m87.8 165.5c0 1.7 0 4.4-.2 7.9 2 .1 4.9 0 8.2-1 2.4-.7 4.4-1.7 5.9-2.5 0-1.7 0-3.1 0-4.2 0-1.5-.1-2.9-.2-4.7 0-.6-.1-1.3-.2-2.1-.3-2.1-.7-3.5-1.8-4.8-.6-.7-1.2-1.3-1.6-1.6-.7-.1-1.5-.3-2.2-.4-.8-.2-1.6-.4-2.3-.6-.8.1-1.9.4-2.9 1.2 0 0-.2.2-.4.4-2.2 2.9-2.3 12.4-2.3 12.4z" fill="url(#I)"/><path d="m94.1 148.2c.6 0 1.5.1 2.6.5.7.3 1.3.8 1.6 1.1-.1.9-.2 1.8-.4 2.7-.5.1-1.5.4-2.8.1-1-.2-1.7-.7-2-1 .4-1.1.7-2.3 1-3.4z" fill="#ffc0c2"/><path d="m93 150.1c.7.1 1.6.1 2.4-.2 3.4-1.1 4.1-5.4 4.1-5.6.7.1 1.3.3 2 .4.4.1.7 0 .9-.1.4-.2.7-.6.7-1 0-1.3-4.1-2.2-5.1-2.4-3-.7-3.8-.2-4.1.1-.5.5-.6 1.1-.7 1.5-.3 2.6-.3 5.4-.2 7.3z" fill="#3c3c3b"/><path d="m98.2 150.5c-.1 0-.2-.1-.4-.1 0-.1-.1-.2-.1-.3-.2-.2-.7-.7-1.6-.7-.3 0-.6 0-.8 0 0 .3.1.9.4 1.5.6.9 1.5 1.2 2.2 1.3.2-.6.3-1.1.3-1.7z" fill="#f29ea4"/><path d="m95.8 148.1c-.4 0-.6-.2-.6-.2-.5-.5-.1-1.7.3-1.9.2-.1.4 0 .4 0s.1 0 .2.1c.3.3.3 1 .3 1 .1-.1.2-.1.3-.2-.1-1.5.9-2.8 2.1-3s2.2.8 2.3.9c.1.4.1.9.1 1.3 0 .6.1 1.3.1 1.8.1.1.2.2.1.4 0 .1-.1.2-.2.3-.1.2-.1.3-.2.5-.1.6-.4 1.5-.6 1.9-.3.6-.4.9-.6 1-1 .7-2.9-.9-3.6-1.6-.3-.3-.8-.7-.7-1.2 0-.1.1-.2.1-.5 0-.2.1-.4.2-.6z" fill="#ffc0c2"/><path d="m99.3 149.9c-.1.6.3 1.3.9 1.4 0-.1.1-.2.1-.3.1-.2.2-.5.3-.8z" fill="#fff"/><path d="m114.8 175.3c.4 0 .9-.2 1-.6l4.7-12.4c.2-.5-.1-1.1-.6-1.3-.5-.2-1.1.1-1.3.6l-4.4 11.6-12.5-2.2c-.5-.1-1 .3-1.1.8-.1.5.3 1 .8 1.1l13.4 2.4c-.1 0 0 0 0 0z" fill="#aaa5aa"/><path d="m103.3 168.6c.1-.2.2-.4.5-.6.1-.1.3-.1 1-.1 0 0 .4 0 1.3.1.1 0 .3.1.4.2v.3c-.1.1-.2.2-.4.2-.4 0-.7 0-1.1 0 1 .3 2 .5 3 .8.2 0 .3.2.2.4 0 .2-.2.3-.4.2-.6-.1-1.1-.2-1.7-.3.5.2 1.1.4 1.6.6.2 0 .3.2.3.4s-.2.3-.4.3c-.5-.1-1.1-.3-1.6-.4.5.2 1 .4 1.5.6.2.1.2.2.2.4s-.3.3-.5.2c-.5-.1-1-.3-1.5-.4.5.2.9.3 1.4.5.1.1.1.2.1.4-.1.1-.2.2-.3.2-1.7-.5-3-.9-3.4-1.1-.1 0-.3-.1-.5-.3s-.3-.4-.3-.5c-.2-.1-.5-.1-.8-.2l.6-2.1c.3 0 .5.1.8.2z" fill="#ffc0c2"/><path d="m93.2 151.5c-.5 0-1.1-.1-1.9.1 0 0-.2 0-.5.1 0 0-.5.1-1 .3-.3.1-2.2 1.3-3.1 5-.4 1.9-1.5 6.6 1.2 9.6 1.2 1.3 2.9 1.7 6.2 2.6 3.2.9 6 1.2 7.9 1.4.2-.8.4-1.6.7-2.4-3.1-2-6.2-4-9.3-6 0-3.5-.1-7.1-.2-10.7z" fill="url(#J)"/><path d="m118.4 204.6c-.8-.4-1.4-.8-1.8-1l-.9-.4v2.3h1.3 1.4z" fill="#312b30"/><circle cx="245.8" cy="80.5" fill="#7e4e24" r="7.3"/><path d="m263.9 97.1c.1.1.1.1.2.2s.3.2.7.2c.5.1.5 0 1 0 .3 0 .5.1.6.1.5.1.7.2.8.1s.1-.2.1-.3-.1-.1-.5-.2-.5-.1-.6-.2-.2-.2-.2-.3c.1-.1.3-.2.5-.3.3-.1.5-.1.7-.1.4.1.7.3 1.1.4.2.1.4 0 .5-.2 0-.1 0-.3-.1-.3l-1.1-.5c.3 0 .5 0 .7.1.5.1.9.4 1.1.2.1-.1.1-.2.1-.2v-.1s-.1-.1-.2-.1c0 0 .1-.1.1-.2s-.1-.2-.2-.2-1.2-.4-1.1-.4l-1.5.3s-1 0-1.3.1-1.3.3-1.3.3l-1.3.2v1.6c.4.1.8 0 1.2-.2z" fill="#ffc0c2"/><path d="m268.2 95.3c.1 0 .2 0 .3.1.1 0 0 0 .3.1.1 0 .3.1.5.2 0 0 0 .1-.1.1-.3-.1-.7-.3-1-.5-.1.1-.1.1-.2.1-.2 0-.5.1-.6.1.1 0 .4-.1.6-.2z" fill="#f29ea4"/><path d="m263.9 97.1h-.1c0-.1 0-.2.1-.3s.2-.2.3-.2c-.2.2-.2.5-.2.6-.1 0-.1 0-.1-.1z" fill="#f29ea4"/><path d="m267.8 95.8c.2 0 .5.1.9.2.1 0 .2.1.3.1.2.1.3.1.4.1-.2.1-.6-.1-1.1-.2-.2 0-.4-.1-.7-.1 0 0-.3-.1-.4-.1s-.8.1-.8.1c.4-.1.7-.2 1-.2.1.1.3.1.4.1z" fill="#f29ea4"/><path d="m248.8 86.1c.4-.4.9-.4 1.3-.5.6 0 1.8.2 2.9 1 .9.7 1.3 1.6 1.6 2.6.2.4.4 1 .7 2.8.2.9.3 2.1.5 3.6 2.5 0 5-.1 7.5-.1v1.9c-2.9 1.5-5.4 1.8-7 1.9-2.4.1-3.3-.4-3.6-.5-1-.6-1.5-2-2.4-4.7-1.8-5.7-2.3-7.2-1.5-8z" fill="url(#K)"/><path d="m245.7 104.2c.5 2.8 1.7 4.4 2.5 5.2 2.7 2.8 6.2 2.6 15 4.1 3.4.6 6.1 1.1 7.6 1.5-.8 3.9-.7 6.8-.4 8.9.2 1.4.6 2.7.9 5.3.3 2.2.4 4 .4 5.2.2.1 2.7 2 5 1.2.6-.2.9-.5 1-.7-.7-.2-1.4-.5-2.2-.8-.4-.2-.9-.4-1.3-.5.9-4.1 1.4-7.6 1.7-10.3 0 0 1.4-10.5-1.2-12.6-.4-.3-.9-.7-.9-.7-.7-.5-1.9-1.2-3.4-1.9-2.3-1.1-5.5-2.2-14.7-2.8-2.4-.2-5.6-.3-9.4-.3-.1-.4-.4-.6-.6-.8z" fill="#f29ea4"/><path d="m276.8 135.5c-1.4.5-5-1.2-5-1.2s-.3 1.5.3 2 7.4.9 7.8 0c.2-.4-.8-1-2.1-1.5-.1.2-.4.5-1 .7z" fill="url(#L)"/><path d="m259.8 114.3c.3.1 2.1.7 4.5 1.5 1 .3 1.7.6 2.2.8-.8 3.5-.8 6.2-.6 8.1.2 1.6.4 2.7.7 5.3.2 2.2.2 4 .2 5.2 2 1.7 4.2 2.3 5.4 1.5.2-.1.5-.4.7-.8-.7-.2-1.4-.5-2.2-.9-.4-.2-.9-.4-1.3-.6 1-4.1 1.7-7.6 2.1-10.2 0 0 1.8-10.4-.7-12.7-.4-.4-.9-.7-.9-.7-.8-.5-1.6-1-2.5-1.5-6.4-3.5-12.8-4.4-17.8-4.4-.8 1.3-1.5 2.5-2.3 3.8 7.3 3.6 10.8 5 12.5 5.6z" fill="#ffc0c2"/><path d="m271.6 136.6c-1.5.5-5-1.4-5-1.4s-.4 1.5.2 2c.5.5 7.3 1.2 7.8.4.2-.4-.8-1-2-1.6-.1.2-.4.4-1 .6z" fill="url(#M)"/><path d="m243.9 100.6h9.3c-.1.8-.2 2 .6 3 1.4 2 4.8 1.1 9.8 1.8 1.8.2 4.4.7 7.5 1.7-1.9 3.2-3.7 6.4-5.6 9.6-1.1-.4-2.7-.9-4.7-1.1-.4-.1-.8-.1-1.2-.1-1-.1-1.7-.1-2.4-.1-1.3 0-1.9 0-3 .1-4.7.2-7.2.3-9.5-.8-.5-.2-3-1.5-4-4.1-1.3-3.2.1-7.1 3.2-10z" fill="url(#N)"/><path d="m243 88.1c.7-.3 1.4-.7 2.2-1l4-1.5c.4 0 .9 0 1.5.2.6.1 1.1.3 1.5.5.2.5.4 1.4.8 2.4 1.3 3.8 2.1 4.9 1.7 6.4-.1.6-.5 1.6-1.7 2.6.1 1.2.2 2.3.3 3.5-1.6.2-3.4.3-5.5.2-1.6-.1-3.1-.3-4.3-.6.2-1.2.4-2.5.6-3.7.1 0 2.3-7.6-1.1-9z" fill="url(#O)"/><path d="m249 85c.2.7.5 1.5.5 1.5.4 1 .1 2.1-.6 2.6-1 .7-2.5-.4-2.7-.5-.6-.5-.9-1-1.1-1.4.2-.4.4-.8.6-1.3.5-1.4.7-2.7.8-3.8.8.9 1.7 1.9 2.5 2.9z" fill="#ffc0c2"/><path d="m249.2 85.6c-.1-.2-.1-.5-.2-.7-.8-.7-1.7-1.3-2.5-2 0 .3-.1 1.3.5 1.9.1.1.5.2 1.3.6.3.2.8.4.9.2z" fill="#f29ea4"/><path d="m250.6 77.8c.8.7.7 6.1.3 6.8-.3.7-1.7.5-2.5.4-.9-.1-1.9-.9-2.1-1.2s0-1.3 0-1.3-.8.3-.8-.4.5-1.8.7-1.4.2.4.2.4 3.3-4 4.2-3.3z" fill="#ffc0c2"/><path d="m251.1 83.1h-1.6c0 .5.4.9.9.9.2 0 .5-.1.6-.3s.1-.4.1-.6z" fill="#fff"/><path d="m266.8 107.6c.4 0 .8-.3 1-.7l4-12.7c.2-.5-.1-1.1-.6-1.2-.5-.2-1.1.1-1.2.6l-3.7 11.9-12.6-1.5c-.5-.1-1 .3-1.1.9-.1.5.3 1 .9 1.1l13.3 1.6c-.1 0-.1 0 0 0z" fill="#aaa5aa"/><path d="m254.9 103.3c.1-.2.2-.4.5-.5.1-.1.2-.1.9 0 0 0 .4 0 1.2.2.1 0 .3.1.4.2v.2c-.1.1-.2.2-.3.2-.3 0-.7 0-1 0 .9.3 1.8.5 2.7.8.2 0 .3.2.2.4 0 .1-.2.2-.3.2-.5-.1-1-.2-1.5-.3.5.2 1 .4 1.5.6.2 0 .3.2.2.3 0 .2-.2.3-.4.2-.5-.1-1-.3-1.5-.4.5.2.9.4 1.4.6.1.1.2.2.2.4s-.3.3-.4.2c-.5-.2-.9-.3-1.4-.5.4.2.8.3 1.3.5.1.1.1.2.1.3-.1.1-.2.2-.3.2-1.6-.5-2.7-1-3.1-1.1-.1 0-.3-.1-.5-.3s-.3-.4-.3-.5c-.2-.1-.5-.1-.7-.2l.7-1.9s.2.1.4.2z" fill="#ffc0c2"/><path d="m242.1 88.8c.3-.3.7-.5.9-.7.2 0 .6 0 .9.2 1.1.6 1 2.5 1.2 5.8 0 1 .1 2.6.3 4.7 3 1.4 6 2.8 9 4.2-.2.7-.4 1.5-.6 2.2-3.7.1-6.6-.5-8.4-1.1-2.8-.9-3.7-1.7-4.1-2.4-.9-1.2-1-2.5-1.1-4.8-.3-2.3-.4-5.9 1.9-8.1z" fill="url(#P)"/><path d="m84.9 64.1c-.1 0-.3 0-.4 0-.3 0-.7 0-1 0-.1 0-.3 0-.4.1-.1 0-.3 0-.4.1h-.1c-.1 0-.2 0-.3.1-.1 0-.3.1-.4.1s-.3.1-.4.1c0 0 0 0-.1 0s-.3.1-.4.1c-.3.1-.6.2-.9.5-.2.1-.5.4-.8.5-.1.1-.2.2-.3.2-.1.1-.2.2-.3.2-.1.1-.2.2-.3.4-.3.4-.6.7-1 1.1-.2.2-.3.5-.5.8-.1.1-.1.2-.2.3s-.1.2-.2.3-.1.3-.2.5v.1c-.1.1-.1.2-.2.5-.1.1-.1.3-.2.5-.1.3-.2.6-.2.9 0 .1-.1.3-.1.5 0 .1 0 .3-.1.5 0 .3-.1.7-.1.9 0 .8.1 1.6.3 2.4v.1c0 .1 0 .2.1.3 0 .1.1.3.1.4 0 .1.1.3.1.4 0 .1.1.3.2.4.4.8.7 1.4 1.3 2 .1.1.1.2.2.3s.2.3.4.4c.6.5 1.2 1.1 1.9 1.5.1.1.2.1.3.2s.2.1.5.2c.1.1.3.1.5.2h.1c.1.1.2.1.5.2.1.1.3.1.5.2.1.1.3.1.5.1.1 0 .3.1.5.1.1 0 .3.1.5.1.1 0 .3 0 .5.1h.4.4.4 1c.1 0 .3 0 .4-.1.1 0 .3 0 .4-.1h.1c.1 0 .2 0 .3-.1.1 0 .3-.1.4-.1s.3-.1.4-.1h.1s.3-.1.4-.1c.6-.2 1.1-.6 1.6-1 .1-.1.2-.2.3-.2.1-.1.2-.2.3-.2.1-.1.2-.2.4-.4.3-.4.6-.7 1-1.1.2-.2.3-.5.5-.8.1-.1.1-.2.2-.3s.1-.2.2-.5c.1-.1.1-.3.2-.5 0 0 0 0 0-.1.1-.1.1-.2.2-.5.1-.1.1-.3.2-.5.1-.3.2-.6.2-.9 0-.1.1-.3.1-.5 0-.1 0-.3.1-.5 0-.1 0-.3 0-.4 0-.1 0-.3 0-.4 0-.1 0-.3 0-.4 0-.4 0-.9-.2-1.5 0-.1 0-.3-.1-.4v-.1c0-.1 0-.2-.1-.3 0-.1-.1-.3-.1-.4s-.1-.3-.1-.4c0 0 0 0 0-.1s-.1-.3-.1-.4c-.1-.3-.2-.6-.5-.9-.1-.2-.4-.5-.5-.8-.1-.1-.2-.2-.2-.3-.1-.1-.1-.2-.2-.3s-.2-.3-.4-.4c-.6-.5-1.2-1.1-1.9-1.5-.1-.1-.2-.1-.3-.2s-.2-.1-.5-.2c-.1-.1-.3-.1-.5-.2 0 0 0 0-.1 0-.1-.1-.2-.1-.5-.2-.1-.1-.3-.1-.5-.2-.1-.1-.3-.1-.5-.1-.1 0-.3-.1-.5-.1-.1 0-.3-.1-.5-.1-.1 0-.3 0-.5-.1-.1 0-.3 0-.4 0-.2.2-.3.2-.5.1z" fill="url(#R)"/><path d="m84.9 66c-.1 0-.2 0-.3 0-.2 0-.6 0-.8 0-.1 0-.2 0-.3 0-.1 0-.2 0-.3.1 0 0 0 0-.1 0s-.2 0-.3.1c-.1 0-.2.1-.3.1s-.2.1-.4.1c-.1 0-.2.1-.3.1-.2.1-.4.2-.8.4-.2.1-.4.2-.7.4-.1.1-.2.1-.3.2s-.2.1-.2.2c-.1.1-.2.2-.3.2-.3.2-.5.6-.7.9-.1.2-.3.4-.4.6-.1.1-.1.2-.2.3s-.1.2-.2.3-.1.2-.2.3v.1s-.1.2-.1.3c0 .1-.1.2-.1.3-.1.2-.1.5-.2.8 0 .1 0 .2-.1.3 0 .1 0 .2-.1.3 0 .2-.1.5-.1.8 0 .7.1 1.2.2 1.9v.1c0 .1 0 .2.1.3 0 .1.1.2.1.3 0 .1.1.2.1.4 0 .1.1.2.1.3.2.6.6 1.1 1.1 1.6l.2.2c.1.1.2.2.4.3.5.4.9.9 1.5 1.2.1.1.2.1.3.2s.2.1.3.2c.1.1.2.1.3.2h.1c.1 0 .2.1.3.1.1 0 .2.1.3.1.1 0 .2.1.5.1.1 0 .2.1.3.1.1 0 .2 0 .3.1.1 0 .2 0 .3.1h.3.3.3.8.3c.1 0 .2 0 .3-.1h.1c.1 0 .2 0 .3-.1.1 0 .2-.1.3-.1s.2-.1.4-.1c.1 0 .2-.1.3-.1.4-.2.9-.5 1.3-.8.1-.1.2-.1.3-.2s.2-.1.2-.2c.1-.1.2-.2.3-.2.3-.2.5-.6.7-.9.1-.2.3-.4.4-.6.1-.1.1-.2.2-.3s.1-.2.2-.3c.1-.1.1-.2.2-.3 0 0 0 0 0-.1s.1-.2.1-.3c0-.1.1-.2.1-.3.1-.2.1-.5.2-.8 0-.1 0-.2.1-.3 0-.1 0-.2.1-.3 0-.1 0-.2 0-.3 0-.1 0-.2 0-.3 0-.1 0-.2 0-.3 0-.3 0-.8-.2-1.1 0-.1 0-.2-.1-.3 0 0 0 0 0-.1s0-.2-.1-.3c0-.1-.1-.2-.1-.3s-.1-.2-.1-.4c0-.1-.1-.2-.1-.3-.1-.2-.2-.4-.4-.8-.1-.2-.2-.4-.4-.7-.1-.1-.1-.2-.2-.3s-.1-.1-.2-.2-.2-.2-.4-.3c-.5-.4-.9-.9-1.5-1.2-.1-.1-.2-.1-.3-.2s-.2-.1-.3-.2-.2-.1-.3-.2c0 0 0 0-.1 0s-.2-.1-.3-.1c-.1 0-.2-.1-.3-.1-.1 0-.2-.1-.5-.1-.1 0-.2-.1-.3-.1-.1 0-.2 0-.3-.1-.1 0-.2 0-.3-.1-.1 0-.2 0-.3 0 .3-.2.1-.2 0-.2z" fill="url(#T)"/><path d="m90.4 79.5c-.1.1-.2.1-.3.2-.4.4-.9.6-1.3.8-.1 0-.2.1-.3.1-.1 0-.2.1-.4.1-.1 0-.2.1-.3.1s-.2 0-.3.1c0 0 0 0-.1 0s-.2 0-.3.1c-.1 0-.2 0-.3 0-.2 0-.6 0-.8 0-.1 0-.2 0-.3 0-.1 0-.2 0-.3 0-.1 0-.2 0-.3 0-.1 0-.2 0-.3-.1-.1 0-.2 0-.3-.1-.1 0-.2-.1-.3-.1-.1 0-.2-.1-.5-.1-.1 0-.2-.1-.3-.1-.1 0-.2-.1-.3-.1 0 0 0 0-.1 0-.1-.1-.2-.1-.3-.2-.1-.1-.2-.1-.3-.2s-.2-.1-.3-.2c-.6-.3-1-.7-1.5-1.2-.1-.1-.2-.2-.4-.3-.1-.1-.1-.1-.2-.2-.4-.5-.7-1.1-1.1-1.6 0-.1-.1-.2-.1-.3 0-.1-.1-.2-.1-.4 0-.1-.1-.2-.1-.3s0-.2-.1-.3c0 0 0 0 0-.1-.1-.7-.3-1.2-.2-1.9 0-.2 0-.6.1-.8 0-.1 0-.2.1-.3 0-.1 0-.2.1-.3.1-.2.1-.6.2-.8 0-.1.1-.2.1-.3 0-.1.1-.2.1-.3 0 0 0 0 0-.1.1-.1.1-.2.2-.3 0-.1.1-.2.2-.3s.1-.2.2-.3c.1-.2.3-.5.4-.6.1-.1.2-.2.3-.4 0 0 0 0-.1 0-.3.2-.5.6-.7.9-.1.2-.3.4-.4.6-.1.1-.1.2-.2.3s-.1.2-.2.3-.1.2-.2.3v.1c0 .1-.1.2-.1.3 0 .1-.1.2-.1.3-.1.2-.1.5-.2.8 0 .1 0 .2-.1.3 0 .1 0 .2-.1.3 0 .2-.1.5-.1.8 0 .7.1 1.2.2 1.9v.1c0 .1 0 .2.1.3 0 .1.1.2.1.3 0 .1.1.2.1.4 0 .1.1.2.1.3.2.6.6 1.1 1.1 1.6l.2.2c.1.1.2.2.4.3.5.4.9.9 1.5 1.2.1.1.2.1.3.2s.2.1.3.2c.1.1.2.1.3.2h.1c.1 0 .2.1.3.1.1 0 .2.1.3.1.1 0 .2.1.5.1.1 0 .2.1.3.1.1 0 .2 0 .3.1.1 0 .2 0 .3.1h.3.3.3.8.3c.1 0 .2 0 .3-.1h.1c.1 0 .2 0 .3-.1.1 0 .2-.1.3-.1s.2-.1.4-.1c.1 0 .2-.1.3-.1.4-.2.9-.5 1.3-.8.1-.1.2-.1.3-.2s.2-.1.2-.2c.2-.1.3-.1.3-.3.1.1.1.1 0 0 .2-.1.3-.2.5-.5-.1.1-.2.1-.2.2-.1.2-.2.2-.3.3z" fill="#f7aa46"/><path d="m87 69.1-.7 1.3c-.6-.3-1.2-.3-1.7-.1l.6 2.1c1.4-.2 1.8 0 2.3.1.6.3 1 .9 1.2 1.7.4 1.5-.5 2.8-2 3.3l.4 1.4-1.3.3-.4-1.4c-1.2.2-2.2.2-3.2-.4l.8-1.4c.7.4 1.4.4 2.2.2l-.5-2.2c-1 .2-1.8 0-2.3-.3-.6-.3-.9-.8-1.2-1.5-.4-1.4.2-2.7 1.8-3.3l-.3-1.1 1.3-.3.3 1.1c1.1-.1 1.9.1 2.7.5zm-4.1 2.9c.1.2.2.4.4.6.2.1.5.2.9.1l-.6-2.1c-.7.3-.9.8-.7 1.4zm4.1 2.8c-.1-.2-.2-.6-.5-.6-.3-.2-.6-.1-1 0l.6 2.1c.7-.4 1-.9.9-1.5z" fill="#e76f32"/><path d="m281.6 64.5c0-.1-.1-.3-.1-.4-.1-.3-.1-.7-.2-1 0-.1-.1-.3-.2-.4 0-.1-.1-.3-.2-.4v-.1c0-.1 0-.2-.2-.3 0-.1-.2-.3-.2-.4s-.2-.3-.2-.4c0 0 0 0 0-.1s-.2-.3-.2-.4c-.2-.3-.3-.5-.6-.8-.2-.2-.5-.5-.6-.7-.1-.1-.3-.2-.3-.3-.1-.1-.3-.2-.3-.3-.1-.1-.3-.2-.4-.3-.4-.3-.8-.5-1.2-.8-.3-.2-.5-.2-.9-.4-.1-.1-.2-.1-.4-.1-.1-.1-.2-.1-.4-.1-.1-.1-.4 0-.5-.1 0 0 0 0-.1 0-.1-.1-.2-.1-.5-.1-.1-.1-.4 0-.5-.1-.4 0-.6-.1-.9 0-.1 0-.4 0-.5 0-.1 0-.3.1-.5 0-.3.1-.7 0-.9.1-.8.2-1.5.3-2.3.7h-.1c-.1 0-.2 0-.3.2-.1 0-.3.2-.4.2-.1 0-.3.2-.4.2-.1 0-.3.2-.4.3-.7.5-1.3 1-1.7 1.6-.1.1-.2.2-.3.3s-.3.3-.4.4c-.4.7-.9 1.3-1.2 2.1-.1.1-.1.2-.1.4-.1.1-.1.2-.1.5-.1.1 0 .4-.1.5v.1c-.1.1-.1.2-.1.5-.1.1 0 .4-.1.5-.1.1 0 .4 0 .5v.5.5c0 .1.1.3 0 .5 0 .1.1.3.1.4 0 .1.1.3.1.4 0 .1.1.3.1.4.1.3.1.7.2 1 0 .1.1.3.2.4 0 .1.1.3.2.4v.1c0 .1 0 .2.2.3 0 .1.2.3.2.4s.2.3.2.4v.1c0 .1.2.3.2.4.3.5.8 1 1.2 1.5.1.1.3.2.3.3.1.1.3.2.3.3.1.1.3.2.4.4.4.3.8.5 1.2.8.3.2.5.2.9.4.1.1.2.1.4.1.1.1.2.1.5.1.1.1.4 0 .5.1h.1c.1.1.2.1.5.1.1.1.4 0 .5.1.4 0 .6.1.9 0h.5c.1 0 .3-.1.5 0 .1 0 .3-.1.4-.1.1 0 .3-.1.4-.1.1 0 .3-.1.4-.1.4-.1.9-.2 1.4-.4.1 0 .3-.1.4-.2h.1c.1 0 .2 0 .3-.2.1 0 .3-.2.4-.2s.3-.2.4-.2h.1c.1 0 .3-.2.4-.2.3-.2.5-.3.8-.6.2-.2.5-.5.7-.6.1-.1.2-.3.3-.3.1-.1.2-.2.3-.3s.3-.3.4-.4c.4-.7.9-1.3 1.2-2.1.1-.1.1-.2.1-.4.1-.1.1-.2.1-.5.1-.1 0-.4.1-.5 0 0 0 0 0-.1.1-.1.1-.2.1-.5.1-.1 0-.4.1-.5.1-.1 0-.4 0-.5 0-.1 0-.4 0-.5 0-.1 0-.4 0-.5 0-.1-.1-.3 0-.5 0-.1-.1-.3-.1-.4-.2-.3-.2-.4-.2-.6z" fill="url(#U)"/><path d="m279.7 64.8c0-.1 0-.2-.1-.3 0-.2-.1-.5-.2-.8 0-.1 0-.2-.1-.3 0-.1 0-.2-.2-.3 0 0 0 0 0-.1s0-.2-.2-.3c0-.1-.2-.2-.2-.3s-.2-.2-.2-.4c0-.1-.2-.2-.2-.3-.2-.2-.3-.4-.5-.7-.2-.2-.3-.4-.5-.6-.1-.1-.2-.2-.3-.3s-.2-.2-.3-.2c-.1-.1-.3-.2-.3-.3-.3-.3-.7-.4-1-.6-.2-.1-.4-.3-.6-.3-.1-.1-.2-.1-.4-.1-.1-.1-.2-.1-.4-.1-.1-.1-.2-.1-.4-.1 0 0 0 0-.1 0s-.2-.1-.4 0c-.1 0-.2-.1-.4 0-.2-.1-.5 0-.8-.1-.1 0-.2 0-.4 0-.1 0-.2 0-.4 0-.2 0-.5 0-.8.1-.7.1-1.2.3-1.8.5 0 0 0 0-.1 0s-.2 0-.3.2c-.1 0-.2.2-.3.2-.1 0-.2.2-.4.2-.1 0-.2.2-.3.2-.5.3-1 .8-1.4 1.4-.1.1-.1.1-.2.3-.1.1-.2.3-.3.4-.3.5-.7 1.1-.9 1.7-.1.1-.1.2-.1.4-.1.1-.1.2-.1.4-.1.1-.1.2-.1.4v.1c0 .1-.1.2 0 .4 0 .1-.1.2 0 .4 0 .1-.1.2 0 .5 0 .1-.1.2 0 .4v.4.4c0 .1 0 .2.1.3 0 .1 0 .2.1.3 0 .1 0 .2.1.3 0 .2.1.5.2.8 0 .1 0 .2.1.3 0 .1 0 .2.2.3v.1c0 .1 0 .2.2.3 0 .1.2.2.2.3s.2.2.2.4c0 .1.2.2.2.3.3.4.6.8 1.1 1.2.1.1.2.2.3.3s.2.2.3.2c.1.1.3.2.3.3.3.3.7.4 1 .6.2.1.4.3.6.3.1.1.2.1.4.1.1.1.2.1.4.1.1.1.2.1.4.1h.1c.1 0 .2.1.4 0 .1 0 .2.1.4 0 .2.1.5 0 .8.1h.4.4c.1 0 .2 0 .3-.1.1 0 .2 0 .3-.1.1 0 .2 0 .3-.1.3-.1.8-.2 1.1-.4.1 0 .2 0 .3-.2h.1c.1 0 .2 0 .3-.2.1 0 .2-.2.3-.2s.2-.2.4-.2c.1 0 .2-.2.3-.2.2-.2.4-.3.7-.5.2-.2.4-.3.6-.5.1-.1.2-.2.3-.3s.1-.1.2-.3c.1-.1.2-.3.3-.4.3-.5.7-1.1.9-1.7.1-.1.1-.2.1-.4.1-.1.1-.2.1-.4.1-.1.1-.2.1-.4 0 0 0 0 0-.1s.1-.2 0-.4c0-.1.1-.2 0-.4 0-.1.1-.2 0-.5 0-.1.1-.2 0-.4 0-.1 0-.2 0-.4 0-.1 0-.2 0-.4 0-.1 0-.2-.1-.3 0 .3-.1.1-.1 0z" fill="url(#V)"/><path d="m267.4 72.5c-.1-.1-.2-.2-.3-.3-.4-.4-.7-.8-1.1-1.2 0-.1-.2-.2-.2-.3 0-.1-.2-.2-.2-.4 0-.1-.2-.2-.2-.3s0-.2-.2-.3c0 0 0 0 0-.1s0-.2-.2-.3c0-.1 0-.2-.1-.3 0-.2-.1-.5-.2-.8 0-.1 0-.2-.1-.3 0-.1 0-.2-.1-.3 0-.1 0-.2-.1-.3 0-.1 0-.2 0-.4 0-.1 0-.2 0-.4 0-.1.1-.2 0-.4 0-.1.1-.2 0-.5 0-.1.1-.2 0-.4 0-.1.1-.2 0-.4 0 0 0 0 0-.1.1-.1.1-.2.1-.4.1-.1.1-.2.1-.4.1-.1.1-.2.1-.4.2-.6.6-1.2.9-1.7.1-.1.2-.3.3-.4s.1-.1.2-.3c.5-.5 1-.9 1.4-1.4.1 0 .2-.2.3-.2.1 0 .2-.2.4-.2.1 0 .2-.2.3-.2s.2 0 .3-.2h.1c.6-.3 1.2-.5 1.8-.5.2 0 .5-.1.8-.1h.4.4c.2.1.6 0 .8.1.1 0 .2.1.4 0 .1 0 .2.1.4 0h.1c.1.1.2.1.4.1.1 0 .2.1.4.1.1.1.2.1.4.1.2.1.5.2.6.3.1.1.3.2.4.3 0 0 0 0 0-.1-.3-.3-.7-.4-1-.6-.2-.1-.4-.3-.6-.3-.1-.1-.2-.1-.4-.1-.1-.1-.2-.1-.4-.1-.1-.1-.2-.1-.4-.1 0 0 0 0-.1 0s-.2-.1-.4 0c-.1 0-.2-.1-.4 0-.2-.1-.5 0-.8-.1-.1 0-.2 0-.4 0-.1 0-.2 0-.4 0-.2 0-.5 0-.8.1-.7.1-1.2.3-1.8.5 0 0 0 0-.1 0s-.2 0-.3.2c-.1 0-.2.2-.3.2-.1 0-.2.2-.4.2-.1 0-.2.2-.3.2-.5.3-1 .8-1.4 1.4-.1.1-.1.1-.2.3-.1.1-.2.3-.3.4-.3.5-.7 1.1-.9 1.7-.1.1-.1.2-.1.4-.1.1-.1.2-.1.4-.1.1-.1.2-.1.4v.1c0 .1-.1.2 0 .4 0 .1-.1.2 0 .4 0 .1-.1.2 0 .5 0 .1-.1.2 0 .4v.4.4c0 .1 0 .2.1.3 0 .1 0 .2.1.3 0 .1 0 .2.1.3 0 .2.1.5.2.8 0 .1 0 .2.1.3 0 .1 0 .2.2.3v.1c0 .1 0 .2.2.3 0 .1.2.2.2.3s.2.2.2.4c0 .1.2.2.2.3.3.4.6.8 1.1 1.2.1.1.2.2.3.3s.2.2.3.2c0 .2 0 .3.3.2-.1.2-.1.2 0 0 .2.2.3.3.6.5-.1-.1-.2-.2-.3-.2-.2-.1-.2-.2-.3-.3z" fill="#f7aa46"/><path d="m276.4 63.4-1.3.8c-.3-.5-.9-.8-1.4-1l-.6 2.1c1.3.5 1.6.9 1.9 1.3.4.6.4 1.3.1 2.1-.5 1.5-1.8 2.1-3.4 1.8l-.4 1.4-1.2-.4.4-1.4c-1.1-.4-1.9-1-2.5-2l1.4-.8c.4.7 1 1 1.8 1.3l.7-2.2c-1-.4-1.6-.9-1.8-1.4-.3-.5-.4-1.2-.2-1.9.4-1.5 1.6-2.2 3.3-1.9l.3-1.1 1.2.4-.3 1.1c.9.4 1.5 1 2 1.8zm-5 .3c-.1.2 0 .5 0 .7.2.2.3.4.7.5l.6-2.1c-.7 0-1.2.3-1.3.9zm2 4.5c.1-.2.1-.6-.1-.8-.2-.3-.4-.4-.8-.5l-.5 2.1c.7.1 1.2-.2 1.4-.8z" fill="#e76f32"/><path d="m157.1 47.1c-.1 0-.1 0-.1 0-.1-.1-.2-.2-.2-.3v-5.2h.5v4.9l3.6-2.3 3.6 2.3v-4.9h.5v5.2c0 .1-.1.2-.2.3s-.2 0-.3 0l-3.6-2.3-3.6 2.3c-.1 0-.1 0-.2 0z" fill="#a1b2aa"/><path d="m159.4 41.2c-.1 0-.3 0-.4-.1-.4-.1-.8-.4-1-.8s-.6-.6-1-.6-.9-.1-1.2-.5c-.3-.3-.5-.7-.5-1.2 0-.4-.2-.8-.6-1s-.7-.6-.8-1 0-.9.2-1.3.2-.8 0-1.2-.3-.8-.2-1.3c.1-.4.4-.8.8-1s.6-.6.6-1 .1-.9.5-1.2c.3-.3.7-.5 1.2-.5.4 0 .8-.2 1-.6s.6-.7 1-.8.9 0 1.3.2.8.2 1.2 0c.4-.2.8-.3 1.3-.2.4.1.8.4 1 .8s.6.6 1 .6.9.1 1.2.5c.3.3.5.7.5 1.2 0 .4.2.8.6 1s.7.6.8 1 0 .9-.2 1.3-.2.8 0 1.2.3.8.2 1.3c-.1.4-.4.8-.8 1s-.6.6-.6 1-.1.9-.5 1.2c-.3.3-.7.5-1.2.5-.4 0-.8.2-1 .6s-.6.7-1 .8-.9 0-1.3-.2-.8-.2-1.2 0c-.3.2-.6.3-.9.3zm1.5-.9c.3 0 .6.1.8.2.3.2.6.2.9.1s.6-.3.7-.6c.3-.5.9-.9 1.5-.8.3 0 .6-.1.8-.3s.3-.5.3-.8c0-.6.3-1.2.8-1.5.3-.1.5-.4.6-.7s0-.6-.1-.9c-.3-.5-.3-1.2 0-1.7.2-.3.2-.6.1-.9s-.3-.6-.6-.7c-.5-.3-.9-.9-.8-1.5 0-.3-.1-.6-.3-.8s-.5-.3-.8-.3c-.6 0-1.2-.3-1.5-.8-.1-.3-.4-.5-.7-.6s-.6 0-.9.1c-.5.3-1.2.3-1.7 0-.3-.2-.6-.2-.9-.1s-.6.3-.7.6c-.3.5-.9.9-1.5.8-.3 0-.6.1-.8.3s-.3.5-.3.8c0 .6-.3 1.2-.8 1.5-.3.1-.5.4-.6.7s0 .6.1.9c.3.5.3 1.2 0 1.7-.2.3-.2.6-.1.9s.3.6.6.7c.5.3.9.9.8 1.5 0 .3.1.6.3.8s.5.3.8.3c.6 0 1.2.3 1.5.8.1.3.4.5.7.6s.6 0 .9-.1.6-.2.9-.2z" fill="#a1b2aa"/><path d="m160.9 38.6c-2.4 0-4.4-2-4.4-4.4s2-4.4 4.4-4.4 4.4 2 4.4 4.4-2 4.4-4.4 4.4zm0-8.4c-2.2 0-4 1.8-4 4s1.8 4 4 4 4-1.8 4-4-1.8-4-4-4z" fill="#a1b2aa"/><path d="m162.5 36.6-1.6-.8-1.6.8.3-1.8-1.3-1.3 1.8-.3.8-1.6.8 1.6 1.8.3-1.3 1.3zm-3.2-2.7.8.8-.2 1.1 1-.5 1 .5-.2-1.1.8-.8-1.1-.2-.5-1-.5 1z" fill="#a1b2aa"/><path d="m247.2 173.6-2.2-4.7 5.6-.4zm-1.7-4.4 1.7 3.8 2.8-4.1z" fill="#a1b2aa"/><path d="m243.8 173.8c-.1 0-.2 0-.2 0-.2-.1-.5-.2-.7-.5-.1-.2-.2-.5-.1-.8.1-.2.2-.5.5-.7.2-.1.5-.2.8-.1s.5.2.7.5c.1.2.2.5.1.8-.1.2-.2.5-.5.7-.2 0-.4.1-.6.1zm0-1.8c-.1 0-.2.1-.4.1-.2.1-.3.2-.3.4-.1.2 0 .4.1.5.1.2.2.3.4.3.2.1.4 0 .5-.1.2-.1.3-.2.3-.4.1-.4-.1-.8-.5-.9.1.1 0 .1-.1.1z" fill="#a1b2aa"/><path d="m37.6 199.9v-9.2h36.6v9.2c0 7-5.7 12.7-12.7 12.7h-11.2c-7 .1-12.7-5.6-12.7-12.7zm.5-8.7v8.7c0 6.8 5.5 12.3 12.3 12.3h11.1c6.8 0 12.3-5.5 12.3-12.3v-8.7z" fill="#a1b2aa"/><path d="m56.8 191c.6-10.2 1.6-25.7-5.7-35.2-6.5-8.4-15.3-13.5-24.1-13.9-4.7-.2-9.7 1.2-13.7 4-4.2 2.9-7 6.9-7.9 11.4-.6 3.2-.3 7.4 2.6 10 2 1.8 5 2.3 7.3 2.8 2.9.5 6 .9 9.3 1.3 4.8.6 9.8 1.1 14.1 2.3 6.6 1.8 11.2 7.9 11.8 15.6h.5c-.6-7.9-5.3-14.1-12.1-16-4.3-1.2-9.3-1.7-14.2-2.3-3.3-.4-6.4-.7-9.2-1.3-2.3-.4-5.1-.9-7.1-2.7-2.7-2.4-3.1-6.5-2.4-9.5 1.8-8.7 11.2-15.4 21.1-15 8.6.4 17.3 5.4 23.7 13.7 7.3 9.4 6.3 24.7 5.6 34.9z" fill="#a1b2aa"/><path d="m56.1 162.7c0-6.4-1.7-10.8-3.6-15.4-2.5-6.3-5.4-13.4-4.7-27.2.3-6.3 1.9-15.3 5.3-19.9 2-2.7 5.3-4.6 8.7-5 2.6-.3 4.9.3 6.8 1.7l.3-.4c-1.9-1.5-4.4-2.1-7.1-1.8-3.4.4-6.9 2.4-9 5.2-3.5 4.6-5.1 13.4-5.4 20.1-.7 13.9 2.2 21 4.7 27.4 1.8 4.6 3.6 9 3.5 15.3z" fill="#a1b2aa"/><path d="m53.3 189.1h.5c-.8-13.3-5.1-23-12.9-28.6-12.5-9.1-29.9-4.8-30-4.7l.1.4c.2 0 17.3-4.4 29.7 4.6 7.5 5.6 11.8 15.1 12.6 28.3z" fill="#a1b2aa"/><path d="m62.7 189.2c5.1-7 4-13.1 4-13.2l-.4.1c0 .1 1.1 6-3.9 12.8z" fill="#a1b2aa"/><path d="m41.2 144.5.4-.3c-1.7-2.3-4.1-3.8-6.5-5.3-4.8-3-9.3-5.8-8.9-15.2.2-4.9-3.4-6.9-7.1-9.1-2.9-1.7-5.9-3.5-7.6-6.6-3.6-6.9-3.9-17.3 2.6-22.9 4.6-3.9 12-4.5 17.8-1.4 6.2 3.3 13.3 12.4 14.7 28.3h.5c-1.4-16.1-8.6-25.3-14.9-28.7-6-3.2-13.6-2.6-18.3 1.5-6.7 5.8-6.5 16.4-2.7 23.4 1.7 3.3 4.8 5.1 7.7 6.8 3.8 2.2 7 4.1 6.9 8.7-.3 9.6 4.5 12.6 9.1 15.6 2.2 1.5 4.6 3 6.3 5.2z" fill="#a1b2aa"/><path d="m46.5 142.2h.5v.6h-.5c.1-.2 0-.4 0-.6zm-.2-2.4.5-.1c0 .2.1.4.1.6l-.5.1c-.1-.2-.1-.4-.1-.6zm-.4-2.4.4-.1c0 .2.1.4.1.6l-.4.1c0-.2-.1-.4-.1-.6zm-.5-2.3.4-.1c0 .2.1.4.1.6l-.4.1c0-.2 0-.4-.1-.6zm-.6-2.4.4-.1c.1.2.1.4.2.6l-.4.1c-.1-.2-.2-.4-.2-.6zm-.9-2.2.4-.2c.1.2.1.4.2.6l-.4.2c0-.3-.1-.4-.2-.6zm-.9-2.2.4-.2.3.6-.4.2c-.2-.3-.2-.4-.3-.6zm-1.2-2.1.4-.2c.1.2.2.4.3.5l-.4.2c-.1-.2-.2-.4-.3-.5zm-1.3-2.1.4-.2c.1.2.2.3.3.5l-.4.2c0-.2-.1-.3-.3-.5zm-1.3-2 .4-.3.3.5-.4.3zm-1.3-2.1.4-.2c.1.2.2.3.3.5l-.4.2c-.1-.1-.2-.3-.3-.5zm-1.2-2.1.4-.2c.1.2.2.4.3.5l-.4.2c-.1-.1-.2-.3-.3-.5zm-1.1-2.2.4-.2c.1.2.2.4.3.5l-.4.2c-.2-.1-.2-.3-.3-.5zm-.9-2.3.4-.1c.1.2.1.4.2.6l-.4.2c-.1-.3-.1-.5-.2-.7zm-.7-2.3.4-.1c.1.2.1.4.2.6l-.4.1c-.1-.2-.2-.4-.2-.6zm-.6-2.4.4-.1c0 .2.1.4.1.6l-.4.1c0-.2 0-.4-.1-.6zm-.4-2.3.4-.1c0 .2.1.4.1.6l-.4.1c-.1-.3-.1-.5-.1-.6zm-.7-2.4.4-.1c.1.2.1.4.2.6l-.4.1c-.1-.2-.1-.4-.2-.6zm-.8-2.3.4-.2c.1.2.1.4.2.6l-.4.2c0-.2-.1-.4-.2-.6zm-.9-2.2.4-.2c.1.2.2.4.3.6l-.4.2c-.2-.2-.3-.4-.3-.6zm-1.2-2.1.4-.2c.1.2.2.3.3.5l-.4.2c-.1-.1-.2-.3-.3-.5zm-1.4-2 .4-.3c.1.2.2.3.4.5l-.4.3c-.1-.1-.2-.3-.4-.5zm-1.5-1.8.3-.3c.1.1.3.3.4.4l-.3.3c-.1-.1-.3-.2-.4-.4zm-1.8-1.6.3-.4c.2.1.3.3.5.4l-.3.3c-.2-.1-.3-.2-.5-.3zm-1.9-1.4.2-.4c.2.1.3.2.5.3l-.3.4c-.1-.1-.3-.2-.4-.3zm-2.2-1.1.2-.4c.2.1.4.2.6.3l-.2.4c-.2-.2-.4-.2-.6-.3zm-2.2-.8.1-.5s.2 0 .6.1l-.1.4c-.4.1-.6 0-.6 0z" fill="#a1b2aa"/><path d="m286.2 82.1c0 .4-.1.7-.2 1s-.2.5-.4.7-.4.3-.6.4-.5.1-.8.1-.5 0-.8-.1c-.2-.1-.5-.2-.6-.4-.2-.2-.3-.4-.4-.7s-.2-.6-.2-1 .1-.7.2-1 .2-.5.4-.7.4-.3.6-.4.5-.2.8-.2.5.1.8.2c.2.1.5.2.6.4.2.2.3.4.4.7.2.3.2.7.2 1zm-.5 0c0-.3 0-.6-.1-.9-.1-.2-.2-.4-.3-.6s-.3-.3-.5-.3c-.2-.1-.4-.1-.6-.1s-.4 0-.6.1-.3.2-.5.3c-.1.2-.2.4-.3.6s-.1.5-.1.9c0 .3 0 .6.1.9.1.2.2.4.3.6s.3.3.5.3c.2.1.4.1.6.1s.4 0 .6-.1.3-.2.5-.3c.1-.2.2-.4.3-.6s.1-.5.1-.9zm4.1-2.1s.1-.1 0 0c.1-.1.2-.1.2-.1h.4l-6.8 9.3c-.1.1-.1.1-.2.1h-.4zm1.5 7.1c0 .4-.1.7-.2 1s-.2.5-.4.7-.4.3-.6.4-.5.2-.8.2-.5 0-.8-.2c-.2-.1-.5-.2-.6-.4-.2-.2-.3-.4-.4-.7s-.2-.6-.2-1 .1-.7.2-1 .2-.5.4-.7.4-.3.6-.4.5-.1.8-.1.5.1.8.1c.2.1.4.2.6.4s.3.4.4.7c.2.2.2.6.2 1zm-.5 0c0-.3 0-.6-.1-.9-.1-.2-.2-.4-.3-.6s-.3-.3-.5-.3c-.2-.1-.4-.1-.6-.1s-.4 0-.6.1-.3.2-.5.3c-.1.2-.2.4-.3.6s-.1.5-.1.9c0 .3 0 .6.1.9.1.2.2.4.3.6s.3.3.5.3c.2.1.4.1.6.1s.4 0 .6-.1.3-.2.5-.3c.1-.2.2-.4.3-.6.1-.3.1-.6.1-.9z" fill="#a1b2aa"/><path d="m218.2 199.9 2.4 3 .4-4.5 3.2 1.7 1.5-3 .4.3-1.6 3.3-3.1-1.6-.4 5-3.2-3.9z" fill="#a1b2aa"/></svg>