<?xml version="1.0" encoding="utf-8"?>
<!-- Generator: Adobe Illustrator 24.1.1, SVG Export Plug-In . SVG Version: 6.00 Build 0)  -->
<svg version="1.1" id="Layer_1" xmlns="http://www.w3.org/2000/svg" xmlns:xlink="http://www.w3.org/1999/xlink" x="0px" y="0px"
	 viewBox="0 0 64 64" style="enable-background:new 0 0 64 64;" xml:space="preserve">
<style type="text/css">
	.st0{fill:#319652;}
	.st1{fill:#333333;}
	.st2{enable-background:new    ;}
</style>
<g id="Group_3324" transform="translate(-541 -322)">
	<g id="Path_1565">
		<path class="st0" d="M552.9,367.9c0,0.5,0.4,1,1,1c0,0,0,0,0,0h3.9c0.5,0,1-0.4,1-1c0-0.5-0.4-1-1-1h-3.9
			C553.3,366.9,552.9,367.4,552.9,367.9z"/>
	</g>
	<g id="Path_1563">
		<path class="st0" d="M568.4,375.8c3.8,0,6.9-3.6,6.9-7.9c0-4.4-3.1-7.9-6.9-7.9c-3.8,0-6.9,3.6-6.9,7.9
			C561.4,372.3,564.5,375.8,568.4,375.8z M568.4,361.9c2.7,0,5,2.7,5,6c0,3.3-2.2,6-5,6c-2.7,0-5-2.7-5-6
			C563.4,364.6,565.6,361.9,568.4,361.9L568.4,361.9z"/>
	</g>
	<g id="Path_1564">
		<path class="st0" d="M580.9,368.9h3.9c0.5,0,1-0.4,1-1c0-0.5-0.4-1-1-1h-3.9c-0.5,0-1,0.4-1,1
			C579.9,368.4,580.4,368.9,580.9,368.9z"/>
	</g>
	<g id="Path_1566">
		<path class="st1" d="M594.2,329.3l3.7-5.5c0.3-0.4,0.2-1-0.3-1.3c-0.1-0.1-0.3-0.1-0.4-0.2c-5.5-0.7-7.7,0.1-9.3,0.7
			c-1.5,0.5-2.3,0.8-5.5-0.6c-0.5-0.2-1.1,0-1.3,0.5c-0.1,0.3-0.1,0.7,0.1,0.9l3.7,5.6c-6,3.2-10.4,12.4-10.8,20.5h-30.3
			c-1.6,0-2.9,1.3-2.9,2.9v30.4c0,1.6,1.3,2.9,2.9,2.9h48.9c1.6,0,2.9-1.3,2.9-2.9v-20.4c5.2-1,9.3-3.9,9.3-11.9
			C605,342.4,600.5,332.7,594.2,329.3z M584.5,325.1c1.4,0.3,2.8,0.2,4.1-0.3c2.2-0.8,4.5-1.1,6.8-0.7l-3.1,4.5
			c-1.8-0.6-3.7-0.6-5.5,0L584.5,325.1z M588.9,363.1v9.7c-3.3,0.4-5.9,3-6.3,6.3h-28.5c-0.4-3.3-3-5.9-6.3-6.3v-10
			c3.3-0.4,5.9-3,6.3-6.3h21.1C577.5,362,583.2,363.1,588.9,363.1L588.9,363.1z M593.8,383.1c0,0.5-0.4,1-1,1h-48.9
			c-0.5,0-1-0.4-1-1v-30.4c0-0.5,0.4-1,1-1h30.3c0,1,0.2,2,0.4,2.9h-21.4c-0.5,0-1,0.4-1,1l0,0c0,3-2.4,5.4-5.4,5.4
			c-0.5,0-1,0.4-1,1l0,0v11.8c0,0.5,0.4,1,1,1c0,0,0,0,0,0c3,0,5.4,2.4,5.4,5.4c0,0.5,0.4,1,1,1c0,0,0,0,0,0h30.3c0.5,0,1-0.4,1-1
			c0,0,0,0,0,0c0-3,2.4-5.4,5.4-5.4c0.5,0,1-0.4,1-1c0,0,0,0,0,0v-10.7c1,0,2-0.1,2.9-0.2L593.8,383.1L593.8,383.1z M589.6,361.2
			c-8.1,0-13.5-1.8-13.5-10.4c0-9.3,6.2-20.7,13.5-20.7c7.3,0,13.5,11.4,13.5,20.7C603.1,359.4,597.7,361.2,589.6,361.2z"/>
	</g>
	<g class="st2">
		<path class="st0" d="M583,348.8v-5.7h2c0.7,0,1.2,0.1,1.6,0.4c0.4,0.3,0.5,0.7,0.5,1.2c0,0.3-0.1,0.5-0.2,0.7
			c-0.1,0.2-0.3,0.4-0.6,0.5c0.3,0.1,0.5,0.2,0.7,0.4s0.3,0.5,0.3,0.8c0,0.5-0.2,1-0.5,1.2c-0.3,0.3-0.8,0.4-1.5,0.4H583z
			 M584.2,345.4h0.9c0.6,0,0.9-0.2,0.9-0.7c0-0.3-0.1-0.4-0.2-0.6c-0.1-0.1-0.4-0.2-0.7-0.2h-0.8V345.4z M584.2,346.3v1.5h1
			c0.3,0,0.5-0.1,0.6-0.2c0.2-0.1,0.2-0.3,0.2-0.5c0-0.5-0.3-0.8-0.8-0.8H584.2z"/>
		<path class="st0" d="M588.1,348.8v-5.7h1.8c0.5,0,0.9,0.1,1.3,0.3s0.7,0.5,0.9,1c0.2,0.4,0.3,0.9,0.3,1.4v0.3c0,0.5-0.1,1-0.3,1.4
			c-0.2,0.4-0.5,0.7-0.9,1c-0.4,0.2-0.8,0.3-1.3,0.3H588.1z M589.3,344v3.8h0.6c0.5,0,0.8-0.1,1.1-0.4s0.4-0.7,0.4-1.3v-0.3
			c0-0.6-0.1-1-0.4-1.3c-0.2-0.3-0.6-0.4-1.1-0.4H589.3z"/>
		<path class="st0" d="M597.2,344h-1.7v4.7h-1.2V344h-1.7v-0.9h4.6V344z"/>
	</g>
</g>
</svg>
